<svg id="svg" version="1.1" xmlns="http://www.w3.org/2000/svg" xmlns:xlink="http://www.w3.org/1999/xlink" width="400" height="300" viewBox="0, 0, 400,300"><g id="svgg"><path id="path0" d="M10.203 29.829 L 10.203 45.555 11.777 46.709 C 12.643 47.343,14.317 48.537,15.498 49.362 C 19.793 52.365,23.614 55.085,26.257 57.018 C 27.742 58.105,30.240 59.896,31.808 60.997 C 33.376 62.099,36.819 64.558,39.460 66.461 C 42.101 68.365,45.923 71.103,47.954 72.546 C 57.434 79.278,64.736 84.491,65.716 85.223 C 66.901 86.109,75.451 92.215,78.920 94.652 C 80.653 95.869,82.813 97.414,83.721 98.084 C 84.629 98.754,85.844 99.638,86.422 100.048 C 86.999 100.458,90.443 102.918,94.074 105.515 C 97.704 108.111,102.161 111.287,103.976 112.572 C 105.791 113.857,109.842 116.749,112.978 118.999 C 116.114 121.248,119.490 123.661,120.480 124.360 C 122.250 125.610,130.708 131.660,131.883 132.517 C 132.213 132.757,133.901 133.965,135.634 135.201 C 137.367 136.437,140.996 139.031,143.699 140.967 C 146.403 142.902,150.040 145.499,151.783 146.737 C 153.525 147.974,154.999 149.141,155.059 149.328 C 155.146 149.605,139.641 160.937,129.042 168.342 C 125.529 170.797,117.775 176.336,115.379 178.103 C 114.224 178.954,112.468 180.210,111.478 180.892 C 110.488 181.575,107.517 183.697,104.876 185.607 C 102.236 187.518,99.130 189.748,97.974 190.563 C 96.819 191.379,94.974 192.688,93.874 193.472 C 92.774 194.257,90.343 195.988,88.473 197.320 C 83.967 200.526,76.408 205.940,74.719 207.170 C 73.976 207.711,70.735 210.021,67.517 212.305 C 64.299 214.588,60.971 216.967,60.122 217.592 C 59.272 218.216,57.449 219.518,56.070 220.486 C 53.368 222.383,45.039 228.347,43.811 229.265 C 42.921 229.929,35.250 235.411,31.208 238.270 C 24.931 242.710,11.803 252.092,11.028 252.692 L 10.203 253.331 10.203 269.051 L 10.203 284.771 32.240 284.771 C 46.680 284.771,54.342 284.667,54.465 284.470 C 54.567 284.304,55.486 283.605,56.508 282.917 C 57.529 282.229,58.432 281.581,58.515 281.478 C 58.597 281.375,60.935 279.677,63.710 277.705 C 66.485 275.732,69.610 273.511,70.654 272.768 C 71.699 272.026,74.087 270.328,75.961 268.996 C 82.469 264.373,88.080 260.359,89.572 259.259 C 90.398 258.651,92.558 257.102,94.374 255.816 C 96.189 254.530,98.282 253.031,99.025 252.485 C 101.224 250.869,130.121 230.237,133.383 227.953 C 135.034 226.798,137.802 224.820,139.535 223.559 C 141.268 222.298,145.319 219.399,148.537 217.116 C 151.755 214.834,155.064 212.468,155.889 211.859 C 158.403 210.003,172.237 200.140,174.794 198.382 C 176.114 197.474,177.262 196.651,177.344 196.552 C 177.427 196.453,179.182 195.178,181.245 193.717 C 183.308 192.257,185.671 190.564,186.497 189.955 C 190.105 187.292,198.779 181.177,199.150 181.034 C 199.374 180.948,201.142 182.020,203.080 183.416 C 205.017 184.813,207.749 186.743,209.152 187.707 C 210.555 188.671,211.770 189.540,211.853 189.639 C 212.010 189.827,219.216 194.997,223.995 198.350 C 227.437 200.765,240.813 210.318,243.079 211.980 C 245.543 213.787,257.080 222.032,264.516 227.300 C 266.662 228.820,269.565 230.901,270.968 231.925 C 272.371 232.950,274.464 234.454,275.619 235.268 C 276.774 236.081,278.810 237.527,280.143 238.479 C 281.476 239.431,283.975 241.209,285.695 242.431 C 287.415 243.652,290.443 245.821,292.423 247.251 C 294.404 248.680,298.860 251.865,302.326 254.328 C 305.791 256.790,308.695 258.880,308.777 258.971 C 308.860 259.063,310.480 260.222,312.378 261.547 C 315.793 263.930,327.755 272.452,329.782 273.945 C 331.043 274.874,338.992 280.572,340.861 281.887 C 341.591 282.401,342.774 283.260,343.490 283.796 L 344.791 284.771 366.694 284.771 L 388.597 284.771 388.597 269.038 L 388.597 253.305 386.383 251.709 C 385.166 250.831,382.652 249.032,380.797 247.712 C 378.942 246.392,375.246 243.749,372.583 241.839 C 369.920 239.930,364.907 236.352,361.443 233.887 C 357.979 231.423,354.941 229.246,354.691 229.049 C 354.442 228.852,349.850 225.568,344.486 221.751 C 339.122 217.934,333.923 214.223,332.933 213.503 C 330.649 211.845,324.901 207.734,320.630 204.705 C 318.815 203.417,315.776 201.251,313.878 199.891 C 311.980 198.531,309.160 196.514,307.610 195.408 C 306.060 194.303,304.035 192.848,303.109 192.175 C 300.731 190.448,292.749 184.761,289.453 182.446 C 287.926 181.373,285.336 179.519,283.698 178.326 C 280.737 176.169,273.679 171.118,269.564 168.213 C 256.423 158.931,243.663 149.635,243.670 149.346 C 243.675 149.149,245.194 147.943,247.046 146.666 C 248.898 145.390,252.573 142.789,255.214 140.887 C 257.854 138.985,261.412 136.451,263.119 135.256 C 264.826 134.061,266.379 132.946,266.570 132.778 C 266.761 132.610,268.335 131.469,270.068 130.243 C 274.038 127.433,277.775 124.756,283.121 120.892 C 285.431 119.222,288.267 117.200,289.422 116.398 C 290.578 115.597,292.896 113.959,294.574 112.759 C 296.253 111.559,299.223 109.438,301.176 108.045 C 303.129 106.652,305.671 104.820,306.827 103.974 C 307.982 103.129,311.763 100.428,315.229 97.973 C 318.695 95.517,322.476 92.817,323.631 91.973 C 325.705 90.456,329.627 87.651,336.218 82.971 C 341.779 79.022,344.072 77.380,347.144 75.144 C 348.750 73.976,351.071 72.327,352.302 71.480 C 353.532 70.633,356.699 68.380,359.340 66.472 C 361.980 64.564,365.626 61.950,367.442 60.663 C 372.346 57.185,379.625 51.964,380.599 51.226 C 381.069 50.870,382.235 50.035,383.191 49.370 C 384.147 48.706,385.754 47.583,386.763 46.876 L 388.597 45.589 388.597 29.846 L 388.597 14.104 366.714 14.104 L 344.832 14.104 342.241 15.979 C 340.816 17.011,338.591 18.597,337.296 19.505 C 336.001 20.413,332.689 22.776,329.936 24.756 C 327.183 26.737,323.403 29.437,321.537 30.758 C 319.671 32.078,315.892 34.779,313.138 36.759 C 310.385 38.740,307.568 40.754,306.879 41.236 C 306.190 41.718,304.006 43.282,302.026 44.712 C 300.045 46.142,295.880 49.124,292.770 51.338 C 280.486 60.084,276.791 62.720,276.125 63.214 C 275.359 63.781,270.241 67.438,265.116 71.077 C 257.367 76.581,252.784 79.863,252.363 80.209 C 251.901 80.589,247.371 83.814,246.166 84.621 C 245.247 85.237,238.883 89.790,236.309 91.674 C 235.154 92.520,231.575 95.081,228.357 97.366 C 225.139 99.651,221.830 102.017,221.005 102.623 C 218.647 104.356,206.922 112.716,201.747 116.354 C 200.515 117.221,199.435 117.929,199.348 117.929 C 199.261 117.929,195.862 115.546,191.793 112.632 C 187.725 109.718,183.788 106.904,183.046 106.378 C 179.979 104.205,164.391 93.071,161.856 91.244 C 160.352 90.160,158.267 88.665,157.223 87.922 C 156.179 87.179,154.680 86.099,153.892 85.521 C 153.104 84.944,151.288 83.661,149.856 82.671 C 148.425 81.680,147.104 80.729,146.920 80.556 C 146.737 80.383,145.911 79.784,145.086 79.225 C 144.261 78.666,141.695 76.841,139.385 75.170 C 133.891 71.197,108.545 53.088,102.884 49.091 C 101.504 48.117,98.755 46.150,96.774 44.720 C 94.794 43.290,90.338 40.108,86.872 37.649 C 83.406 35.190,80.503 33.097,80.420 32.998 C 80.338 32.900,79.595 32.364,78.770 31.809 C 76.700 30.416,63.801 21.201,63.616 20.983 C 63.533 20.886,62.453 20.115,61.215 19.270 C 59.977 18.425,57.842 16.917,56.470 15.919 L 53.975 14.104 32.089 14.104 L 10.203 14.104 10.203 29.829 " stroke="none" fill="#fbfbfb" fill-rule="evenodd"></path><path id="path1" d="M10.099 13.728 C 9.973 13.932,26.089 13.930,46.362 13.723 C 50.653 13.679,44.280 13.612,32.201 13.573 C 20.121 13.535,10.175 13.605,10.099 13.728 M352.288 13.723 C 372.992 13.930,388.827 13.932,388.701 13.728 C 388.624 13.605,378.611 13.535,366.449 13.573 C 354.287 13.612,347.914 13.679,352.288 13.723 M326.932 26.283 L 326.032 27.056 327.007 26.411 C 327.543 26.056,327.982 25.707,327.982 25.636 C 327.982 25.411,327.855 25.490,326.932 26.283 M320.630 30.784 L 319.730 31.557 320.705 30.912 C 321.242 30.557,321.680 30.208,321.680 30.137 C 321.680 29.912,321.553 29.991,320.630 30.784 M93.023 41.493 C 93.023 41.551,93.462 41.919,93.998 42.312 C 94.602 42.753,94.812 42.826,94.548 42.502 C 94.149 42.010,93.023 41.266,93.023 41.493 M107.727 52.022 C 107.727 52.105,108.132 52.461,108.627 52.813 C 109.122 53.166,109.527 53.387,109.527 53.304 C 109.527 53.222,109.122 52.866,108.627 52.513 C 108.132 52.161,107.727 51.940,107.727 52.022 M290.023 52.689 L 289.122 53.463 290.098 52.818 C 290.634 52.463,291.073 52.114,291.073 52.043 C 291.073 51.818,290.946 51.896,290.023 52.689 M117.029 58.624 C 117.029 58.706,117.434 59.062,117.929 59.415 C 118.425 59.767,118.830 59.988,118.830 59.906 C 118.830 59.823,118.425 59.467,117.929 59.115 C 117.434 58.762,117.029 58.541,117.029 58.624 M272.318 65.293 L 271.418 66.066 272.393 65.421 C 272.929 65.066,273.368 64.717,273.368 64.646 C 273.368 64.421,273.241 64.499,272.318 65.293 M38.985 66.726 C 39.385 67.218,40.510 67.962,40.510 67.734 C 40.510 67.677,40.071 67.308,39.535 66.916 C 38.931 66.474,38.722 66.402,38.985 66.726 M257.256 76.091 L 256.414 76.863 257.389 76.185 C 257.926 75.811,258.365 75.464,258.365 75.412 C 258.365 75.176,258.033 75.379,257.256 76.091 M158.140 88.031 C 158.140 88.114,158.545 88.470,159.040 88.822 C 159.535 89.175,159.940 89.396,159.940 89.313 C 159.940 89.231,159.535 88.875,159.040 88.522 C 158.545 88.170,158.140 87.949,158.140 88.031 M69.451 88.496 C 69.677 88.861,72.318 90.721,72.318 90.515 C 72.318 90.440,71.629 89.884,70.786 89.278 C 69.944 88.673,69.343 88.321,69.451 88.496 M327.232 89.899 L 326.332 90.672 327.307 90.027 C 327.843 89.672,328.282 89.323,328.282 89.252 C 328.282 89.027,328.155 89.106,327.232 89.899 M172.243 98.218 C 172.243 98.288,172.817 98.723,173.518 99.186 C 174.220 99.649,174.635 99.835,174.442 99.601 C 174.069 99.150,172.243 98.001,172.243 98.218 M182.146 105.120 C 182.146 105.194,182.641 105.633,183.247 106.095 C 183.853 106.557,184.254 106.782,184.138 106.595 C 183.901 106.211,182.146 104.912,182.146 105.120 M215.604 105.803 L 214.704 106.576 215.679 105.931 C 216.215 105.576,216.654 105.227,216.654 105.156 C 216.654 104.931,216.527 105.010,215.604 105.803 M184.546 106.921 C 184.546 106.995,185.042 107.434,185.648 107.896 C 186.254 108.358,186.655 108.583,186.539 108.395 C 186.301 108.011,184.546 106.712,184.546 106.921 M295.724 112.404 L 294.824 113.178 295.799 112.532 C 296.335 112.178,296.774 111.829,296.774 111.758 C 296.774 111.533,296.647 111.611,295.724 112.404 M286.422 119.006 L 285.521 119.780 286.497 119.134 C 287.033 118.779,287.472 118.430,287.472 118.359 C 287.472 118.135,287.345 118.213,286.422 119.006 M282.221 122.007 L 281.320 122.780 282.296 122.135 C 282.832 121.780,283.271 121.431,283.271 121.360 C 283.271 121.135,283.144 121.214,282.221 122.007 M118.830 123.740 C 118.830 123.823,119.235 124.179,119.730 124.531 C 120.225 124.884,120.630 125.105,120.630 125.022 C 120.630 124.940,120.225 124.584,119.730 124.231 C 119.235 123.878,118.830 123.658,118.830 123.740 M126.386 129.202 C 126.664 129.521,127.339 130.038,127.887 130.350 C 129.062 131.020,128.752 130.688,127.082 129.485 C 126.384 128.983,126.093 128.864,126.386 129.202 M149.287 153.215 L 148.387 153.988 149.362 153.343 C 149.899 152.988,150.338 152.639,150.338 152.568 C 150.338 152.343,150.211 152.421,149.287 153.215 M248.462 152.532 C 248.462 152.606,248.958 153.045,249.564 153.507 C 250.170 153.969,250.571 154.194,250.455 154.007 C 250.217 153.623,248.462 152.324,248.462 152.532 M146.887 155.015 L 145.986 155.789 146.962 155.143 C 147.498 154.788,147.937 154.439,147.937 154.368 C 147.937 154.144,147.810 154.222,146.887 155.015 M250.863 154.348 C 250.863 154.430,251.268 154.786,251.763 155.139 C 252.258 155.491,252.663 155.712,252.663 155.630 C 252.663 155.547,252.258 155.191,251.763 154.839 C 251.268 154.486,250.863 154.265,250.863 154.348 M134.584 163.717 L 133.683 164.491 134.659 163.845 C 135.195 163.490,135.634 163.142,135.634 163.070 C 135.634 162.846,135.507 162.924,134.584 163.717 M263.466 163.324 C 263.466 163.381,263.905 163.749,264.441 164.142 C 265.045 164.584,265.254 164.656,264.991 164.332 C 264.591 163.840,263.466 163.096,263.466 163.324 M285.371 178.939 C 285.371 179.013,285.867 179.452,286.473 179.914 C 287.079 180.376,287.480 180.601,287.364 180.414 C 287.127 180.029,285.371 178.730,285.371 178.939 M198.611 181.744 C 198.236 182.198,198.257 182.206,198.850 181.837 C 199.401 181.494,199.586 181.498,200.051 181.864 C 200.554 182.259,200.566 182.251,200.188 181.770 C 199.671 181.111,199.141 181.102,198.611 181.744 M291.973 183.774 C 291.973 183.856,292.783 184.474,293.773 185.146 C 294.764 185.819,295.574 186.301,295.574 186.219 C 295.574 186.136,294.764 185.519,293.773 184.846 C 292.783 184.174,291.973 183.691,291.973 183.774 M103.601 185.776 C 102.899 186.273,102.326 186.746,102.326 186.828 C 102.326 186.909,102.933 186.557,103.676 186.047 C 104.419 185.536,105.026 185.056,105.026 184.982 C 105.026 184.775,104.969 184.807,103.601 185.776 M191.598 186.823 L 190.698 187.596 191.673 186.951 C 192.209 186.596,192.648 186.247,192.648 186.176 C 192.648 185.951,192.521 186.030,191.598 186.823 M87.697 197.179 C 86.995 197.676,86.422 198.149,86.422 198.230 C 86.422 198.312,87.029 197.960,87.772 197.449 C 88.515 196.938,89.122 196.459,89.122 196.385 C 89.122 196.178,89.065 196.210,87.697 197.179 M309.677 196.358 C 309.677 196.441,310.083 196.797,310.578 197.149 C 311.073 197.502,311.478 197.723,311.478 197.640 C 311.478 197.558,311.073 197.202,310.578 196.849 C 310.083 196.497,309.677 196.276,309.677 196.358 M61.965 215.630 L 61.065 216.404 62.041 215.758 C 62.577 215.403,63.016 215.055,63.016 214.983 C 63.016 214.759,62.889 214.837,61.965 215.630 M57.089 219.085 C 56.388 219.581,55.814 220.054,55.814 220.136 C 55.814 220.217,56.422 219.866,57.164 219.355 C 57.907 218.844,58.515 218.365,58.515 218.290 C 58.515 218.084,58.458 218.115,57.089 219.085 M340.285 218.264 C 340.285 218.346,340.690 218.702,341.185 219.055 C 341.680 219.407,342.086 219.628,342.086 219.546 C 342.086 219.463,341.680 219.107,341.185 218.755 C 340.690 218.402,340.285 218.181,340.285 218.264 M344.486 221.264 C 344.486 221.347,344.891 221.703,345.386 222.056 C 345.881 222.408,346.287 222.629,346.287 222.546 C 346.287 222.464,345.881 222.108,345.386 221.755 C 344.891 221.403,344.486 221.182,344.486 221.264 M48.162 225.533 L 47.262 226.306 48.237 225.661 C 48.773 225.306,49.212 224.957,49.212 224.886 C 49.212 224.661,49.085 224.739,48.162 225.533 M119.130 238.596 C 118.084 239.513,118.084 239.514,119.046 238.874 C 119.577 238.521,120.091 238.103,120.189 237.946 C 120.478 237.477,120.238 237.625,119.130 238.596 M383.196 248.870 C 383.196 248.945,383.885 249.501,384.727 250.106 C 385.570 250.712,386.171 251.064,386.062 250.889 C 385.837 250.523,383.196 248.663,383.196 248.870 M96.174 254.951 C 95.634 255.410,95.524 255.593,95.899 255.407 C 96.449 255.134,97.480 254.146,97.186 254.174 C 97.125 254.180,96.669 254.530,96.174 254.951 M320.780 268.088 C 320.780 268.171,321.388 268.656,322.131 269.167 C 322.873 269.678,323.481 270.029,323.481 269.946 C 323.481 269.864,322.873 269.378,322.131 268.867 C 321.388 268.356,320.780 268.006,320.780 268.088 M338.485 280.679 C 338.485 280.762,338.890 281.118,339.385 281.470 C 339.880 281.823,340.285 282.044,340.285 281.961 C 340.285 281.879,339.880 281.523,339.385 281.170 C 338.890 280.818,338.485 280.597,338.485 280.679 " stroke="none" fill="#6393cf" fill-rule="evenodd"></path><path id="path2" d="M0.000 150.038 L 0.000 300.075 200.000 300.075 L 400.000 300.075 400.000 150.038 L 400.000 0.000 200.000 0.000 L 0.000 0.000 0.000 150.038 M55.823 14.479 C 57.347 15.791,59.570 17.404,59.855 17.404 C 60.099 17.404,64.195 20.427,64.882 21.114 C 65.104 21.336,66.497 22.297,67.977 23.250 C 69.457 24.203,70.735 25.073,70.818 25.184 C 70.900 25.295,71.440 25.710,72.018 26.107 C 72.596 26.503,73.136 26.913,73.218 27.016 C 73.301 27.120,74.381 27.885,75.619 28.716 C 76.857 29.547,79.023 31.098,80.433 32.162 C 81.843 33.226,83.193 34.175,83.434 34.270 C 83.674 34.365,85.691 35.808,87.916 37.475 C 90.141 39.143,92.369 40.704,92.867 40.945 C 93.366 41.185,94.139 41.726,94.586 42.146 C 95.032 42.567,95.478 42.911,95.577 42.911 C 95.675 42.911,96.660 43.625,97.765 44.498 C 98.871 45.371,100.146 46.272,100.600 46.500 C 101.054 46.727,101.425 47.025,101.425 47.162 C 101.425 47.300,101.608 47.412,101.831 47.412 C 102.054 47.412,102.660 47.817,103.179 48.312 C 103.697 48.807,104.223 49.212,104.348 49.213 C 104.474 49.213,104.933 49.517,105.370 49.888 C 106.092 50.502,110.155 53.439,111.285 54.164 C 111.542 54.329,111.912 54.599,112.107 54.764 C 113.375 55.837,113.769 56.114,114.032 56.114 C 114.195 56.114,114.329 56.224,114.329 56.359 C 114.329 56.493,114.902 56.920,115.604 57.306 C 116.958 58.052,120.382 60.564,122.131 62.095 C 122.708 62.601,123.350 63.015,123.556 63.015 C 123.762 63.015,123.931 63.151,123.931 63.316 C 123.931 63.481,124.108 63.616,124.325 63.616 C 124.541 63.616,125.008 63.886,125.362 64.216 C 125.717 64.546,126.122 64.816,126.262 64.816 C 126.403 64.816,126.780 65.053,127.100 65.343 C 127.997 66.155,133.128 69.917,133.339 69.917 C 133.442 69.917,133.764 70.112,134.055 70.350 C 135.289 71.359,140.225 74.925,141.289 75.575 C 141.925 75.964,142.863 76.673,143.374 77.151 C 143.885 77.629,144.426 78.020,144.575 78.020 C 144.725 78.020,145.271 78.425,145.789 78.920 C 146.307 79.415,146.811 79.820,146.908 79.820 C 147.442 79.820,153.912 84.496,154.874 85.576 C 155.141 85.876,155.580 86.122,155.849 86.122 C 156.119 86.122,156.339 86.257,156.339 86.422 C 156.339 86.587,156.516 86.722,156.733 86.722 C 156.949 86.722,157.416 86.992,157.770 87.322 C 158.125 87.652,158.501 87.922,158.606 87.922 C 158.711 87.922,159.898 88.772,161.244 89.811 C 162.590 90.849,164.569 92.291,165.641 93.014 C 166.714 93.737,167.659 94.413,167.742 94.516 C 167.824 94.618,168.365 95.027,168.942 95.424 C 169.520 95.821,170.060 96.224,170.143 96.321 C 170.225 96.418,171.440 97.251,172.843 98.172 C 174.246 99.092,175.801 100.235,176.299 100.711 C 176.797 101.186,177.574 101.767,178.025 102.001 C 178.476 102.235,178.845 102.539,178.845 102.676 C 178.845 102.814,178.986 102.926,179.158 102.926 C 179.492 102.926,183.587 105.618,184.283 106.295 C 184.510 106.516,185.169 107.023,185.746 107.422 C 186.324 107.822,187.001 108.358,187.250 108.613 C 187.499 108.868,188.006 109.246,188.375 109.452 C 188.745 109.659,189.345 109.996,189.708 110.203 C 190.072 110.409,191.456 111.397,192.784 112.399 C 197.921 116.275,200.102 117.432,200.500 116.493 C 200.610 116.233,204.104 113.694,208.307 110.820 C 211.067 108.933,211.994 108.256,213.925 106.717 C 215.634 105.355,219.297 102.926,219.641 102.926 C 219.814 102.926,219.955 102.814,219.955 102.676 C 219.955 102.539,220.324 102.235,220.775 102.001 C 221.226 101.767,222.002 101.186,222.500 100.711 C 222.998 100.235,224.554 99.092,225.956 98.172 C 227.359 97.251,228.575 96.418,228.657 96.321 C 228.740 96.224,229.280 95.821,229.857 95.424 C 230.435 95.027,230.975 94.618,231.058 94.516 C 231.140 94.413,232.086 93.737,233.158 93.014 C 234.231 92.291,236.013 91.018,237.118 90.186 C 241.063 87.215,241.774 86.722,242.115 86.722 C 242.305 86.722,242.461 86.587,242.461 86.422 C 242.461 86.257,242.681 86.122,242.951 86.122 C 243.220 86.122,243.659 85.876,243.926 85.576 C 244.888 84.496,251.358 79.820,251.892 79.820 C 251.989 79.820,252.492 79.415,253.010 78.920 C 253.529 78.425,254.073 78.020,254.221 78.020 C 254.369 78.020,254.855 77.672,255.302 77.247 C 256.386 76.217,258.543 74.719,258.944 74.719 C 259.120 74.719,259.265 74.613,259.265 74.483 C 259.265 74.354,259.665 74.012,260.154 73.723 C 260.643 73.434,261.217 73.027,261.429 72.818 C 261.642 72.610,262.491 71.982,263.316 71.423 C 264.141 70.864,264.884 70.321,264.966 70.215 C 265.049 70.110,265.319 69.944,265.566 69.848 C 265.814 69.751,267.637 68.442,269.617 66.940 C 271.598 65.437,273.590 64.042,274.044 63.839 C 274.497 63.636,274.869 63.367,274.869 63.243 C 274.869 63.118,275.038 63.015,275.244 63.015 C 275.450 63.015,276.092 62.602,276.669 62.097 C 278.478 60.517,281.164 58.515,281.474 58.515 C 281.637 58.515,281.770 58.395,281.770 58.249 C 281.770 58.103,282.224 57.767,282.779 57.504 C 283.334 57.241,283.958 56.820,284.166 56.570 C 284.374 56.319,284.664 56.114,284.811 56.114 C 284.957 56.114,285.478 55.756,285.968 55.319 C 286.459 54.882,287.110 54.376,287.416 54.194 C 287.721 54.012,288.621 53.391,289.415 52.813 C 290.209 52.236,291.751 51.116,292.841 50.325 C 293.932 49.535,295.062 48.691,295.352 48.450 C 295.643 48.209,295.981 48.012,296.102 48.011 C 296.224 48.011,296.797 47.606,297.374 47.112 C 297.952 46.617,298.545 46.213,298.691 46.212 C 298.838 46.212,299.878 45.469,301.001 44.561 C 302.125 43.653,303.124 42.911,303.223 42.911 C 303.321 42.911,303.767 42.567,304.214 42.146 C 304.661 41.726,305.431 41.186,305.926 40.946 C 306.422 40.706,308.650 39.144,310.878 37.474 C 313.106 35.804,315.125 34.361,315.366 34.267 C 315.606 34.174,316.011 33.925,316.266 33.715 C 317.256 32.898,321.037 30.169,323.181 28.723 C 324.419 27.888,325.499 27.120,325.581 27.016 C 325.664 26.913,326.204 26.503,326.782 26.107 C 327.359 25.710,327.899 25.295,327.982 25.184 C 328.065 25.073,329.347 24.203,330.833 23.250 C 332.318 22.297,333.601 21.426,333.683 21.315 C 333.908 21.013,337.844 18.005,338.015 18.005 C 338.097 18.005,338.742 17.595,339.449 17.094 C 340.157 16.594,341.073 15.954,341.485 15.673 C 341.898 15.392,342.641 14.789,343.136 14.334 L 344.036 13.506 366.467 13.505 L 388.897 13.503 388.897 29.848 L 388.897 46.192 386.422 48.017 C 385.060 49.020,383.736 50.003,383.480 50.202 C 383.223 50.400,382.548 50.826,381.979 51.148 C 381.411 51.470,379.890 52.550,378.600 53.548 C 377.311 54.547,376.035 55.499,375.766 55.664 C 375.497 55.829,375.007 56.200,374.678 56.489 C 374.350 56.778,373.972 57.014,373.840 57.014 C 373.708 57.014,373.362 57.209,373.072 57.448 C 372.781 57.686,371.800 58.423,370.893 59.084 C 369.985 59.745,369.107 60.400,368.942 60.538 C 368.777 60.677,367.967 61.245,367.142 61.801 C 366.317 62.358,364.630 63.567,363.393 64.490 C 359.758 67.202,359.424 67.436,357.598 68.553 C 356.640 69.139,355.424 70.022,354.897 70.517 C 354.370 71.011,353.836 71.416,353.711 71.416 C 353.585 71.417,353.059 71.823,352.541 72.318 C 352.023 72.813,351.416 73.218,351.193 73.218 C 350.970 73.218,350.788 73.324,350.788 73.454 C 350.788 73.583,350.349 73.940,349.812 74.247 C 349.276 74.554,348.150 75.325,347.309 75.962 C 346.469 76.598,345.691 77.119,345.581 77.119 C 345.471 77.119,344.957 77.524,344.439 78.020 C 343.921 78.515,343.314 78.920,343.091 78.920 C 342.868 78.920,342.686 79.032,342.686 79.169 C 342.686 79.306,342.314 79.610,341.860 79.844 C 341.407 80.078,340.765 80.520,340.435 80.827 C 340.105 81.133,339.497 81.602,339.085 81.870 C 338.672 82.138,337.524 82.969,336.534 83.716 C 335.544 84.463,334.329 85.276,333.833 85.523 C 333.338 85.770,332.783 86.107,332.600 86.272 C 331.230 87.505,330.368 88.222,330.255 88.222 C 330.182 88.222,329.158 88.947,327.980 89.833 C 326.803 90.719,325.477 91.627,325.035 91.850 C 324.593 92.074,323.605 92.767,322.839 93.390 C 322.073 94.014,321.347 94.524,321.224 94.524 C 321.101 94.524,320.782 94.775,320.515 95.082 C 320.118 95.539,318.022 97.018,315.141 98.875 C 314.885 99.040,314.273 99.546,313.782 100.000 C 313.291 100.454,312.718 100.825,312.509 100.825 C 312.299 100.825,312.083 100.944,312.028 101.088 C 311.973 101.233,310.983 101.978,309.827 102.744 C 308.672 103.510,306.917 104.801,305.926 105.613 C 304.936 106.424,303.978 107.097,303.797 107.108 C 303.617 107.118,303.242 107.377,302.965 107.683 C 302.688 107.990,301.886 108.536,301.182 108.898 C 300.479 109.260,299.503 109.921,299.014 110.367 C 297.786 111.486,295.036 113.501,293.782 114.199 C 293.210 114.518,292.475 115.015,292.150 115.304 C 291.826 115.593,291.449 115.829,291.314 115.829 C 291.178 115.829,290.643 116.234,290.125 116.729 C 289.607 117.224,289.061 117.629,288.911 117.629 C 288.762 117.629,288.208 118.042,287.681 118.546 C 287.153 119.050,286.114 119.820,285.371 120.257 C 284.629 120.694,283.953 121.132,283.871 121.230 C 283.788 121.329,283.248 121.734,282.671 122.131 C 282.093 122.527,281.553 122.935,281.470 123.036 C 281.388 123.137,280.645 123.676,279.820 124.233 C 278.995 124.791,278.275 125.356,278.220 125.489 C 278.165 125.622,277.974 125.731,277.796 125.731 C 277.618 125.731,275.959 126.879,274.110 128.282 C 272.261 129.685,270.595 130.833,270.408 130.833 C 270.221 130.833,270.068 130.945,270.068 131.082 C 270.068 131.219,269.696 131.523,269.242 131.757 C 268.298 132.244,268.356 132.204,266.195 133.906 C 263.378 136.124,262.445 136.787,261.365 137.338 C 260.788 137.632,259.924 138.247,259.445 138.704 C 258.967 139.161,258.459 139.535,258.317 139.535 C 258.175 139.535,257.656 139.894,257.163 140.333 C 256.671 140.772,255.944 141.346,255.550 141.608 C 253.315 143.093,249.127 146.112,247.784 147.206 C 247.493 147.443,247.155 147.637,247.033 147.637 C 246.911 147.637,246.419 147.975,245.940 148.387 C 245.460 148.800,244.954 149.137,244.815 149.137 C 244.226 149.137,244.674 149.645,245.997 150.479 C 247.297 151.298,249.422 152.818,250.591 153.765 C 250.854 153.979,251.935 154.739,252.992 155.455 C 254.049 156.170,255.069 156.899,255.260 157.073 C 255.450 157.247,256.380 157.929,257.327 158.590 C 258.273 159.250,259.360 160.094,259.743 160.465 C 260.125 160.836,260.647 161.140,260.902 161.140 C 261.157 161.140,261.365 161.275,261.365 161.440 C 261.365 161.605,261.542 161.740,261.759 161.740 C 261.975 161.740,262.442 162.011,262.797 162.341 C 263.151 162.671,263.526 162.941,263.631 162.941 C 263.735 162.941,264.517 163.536,265.368 164.263 C 266.693 165.395,271.322 168.651,273.138 169.730 C 273.451 169.915,274.069 170.407,274.513 170.823 C 274.956 171.238,276.062 172.062,276.969 172.653 C 279.665 174.407,281.314 175.604,281.420 175.882 C 281.475 176.026,281.692 176.144,281.901 176.144 C 282.110 176.144,282.679 176.524,283.166 176.989 C 283.652 177.454,284.251 177.911,284.497 178.005 C 284.925 178.170,289.861 181.777,290.173 182.154 C 290.507 182.558,293.154 184.246,293.452 184.246 C 293.629 184.246,293.773 184.381,293.773 184.546 C 293.773 184.711,293.951 184.846,294.167 184.846 C 294.383 184.846,294.822 185.083,295.142 185.371 C 295.463 185.660,296.264 186.292,296.924 186.776 C 297.585 187.259,298.617 188.090,299.219 188.622 C 299.821 189.154,300.781 189.812,301.354 190.084 C 301.926 190.355,302.677 190.841,303.023 191.163 C 303.368 191.485,303.718 191.748,303.801 191.748 C 303.883 191.748,305.273 192.732,306.889 193.934 C 308.505 195.137,310.333 196.453,310.951 196.860 C 311.568 197.267,312.075 197.701,312.076 197.824 C 312.077 197.948,312.261 198.050,312.484 198.050 C 312.707 198.050,313.283 198.421,313.764 198.875 C 314.245 199.329,315.008 199.892,315.459 200.126 C 315.910 200.360,316.279 200.664,316.279 200.801 C 316.279 200.938,316.448 201.051,316.654 201.051 C 317.045 201.051,322.841 205.278,323.957 206.377 C 324.167 206.583,324.411 206.752,324.500 206.752 C 324.669 206.752,327.955 208.920,329.780 210.236 C 330.357 210.651,331.302 211.426,331.881 211.957 C 332.460 212.489,333.433 213.159,334.045 213.446 C 334.656 213.733,335.331 214.138,335.545 214.346 C 335.759 214.554,336.407 215.053,336.984 215.456 C 338.137 216.259,338.226 216.326,339.535 217.350 C 340.030 217.737,341.300 218.636,342.357 219.347 C 343.414 220.059,344.494 220.815,344.758 221.028 C 346.083 222.102,348.164 223.580,350.188 224.884 C 351.425 225.681,352.506 226.418,352.588 226.521 C 352.671 226.624,353.548 227.316,354.539 228.058 C 355.529 228.800,356.384 229.509,356.439 229.632 C 356.494 229.756,356.672 229.857,356.835 229.857 C 357.106 229.857,359.739 231.541,360.090 231.938 C 360.173 232.032,360.456 232.243,360.720 232.408 C 361.275 232.754,363.604 234.483,364.340 235.094 C 364.614 235.322,366.100 236.353,367.641 237.384 C 370.545 239.329,373.070 241.245,373.243 241.635 C 373.298 241.759,373.477 241.860,373.639 241.860 C 373.927 241.860,376.398 243.464,377.086 244.097 C 377.708 244.669,378.531 245.311,379.595 246.051 C 380.173 246.454,380.713 246.858,380.795 246.950 C 380.878 247.042,381.460 247.386,382.089 247.715 C 382.719 248.043,383.448 248.548,383.711 248.837 C 383.974 249.126,384.337 249.363,384.518 249.364 C 384.698 249.364,385.251 249.736,385.746 250.189 C 386.242 250.642,387.153 251.391,387.772 251.853 L 388.897 252.694 388.897 269.033 L 388.897 285.371 366.503 285.371 L 344.109 285.371 342.872 284.306 C 341.432 283.066,341.462 283.089,339.631 281.833 C 338.858 281.303,338.146 280.870,338.047 280.870 C 337.877 280.870,334.002 277.957,333.683 277.589 C 333.384 277.244,331.413 275.897,330.608 275.487 C 330.154 275.256,329.782 274.955,329.782 274.818 C 329.782 274.681,329.600 274.569,329.377 274.569 C 329.154 274.569,328.547 274.164,328.029 273.668 C 327.511 273.173,326.976 272.768,326.841 272.768 C 326.706 272.768,326.333 272.528,326.013 272.235 C 325.693 271.942,324.082 270.765,322.432 269.619 C 320.782 268.473,319.229 267.371,318.981 267.170 C 317.690 266.128,315.670 264.683,315.041 264.353 C 314.101 263.858,309.256 260.143,309.127 259.818 C 309.072 259.679,308.897 259.565,308.739 259.565 C 308.495 259.565,304.462 256.963,303.526 256.202 C 301.168 254.285,298.957 252.666,298.694 252.665 C 298.512 252.664,297.966 252.283,297.480 251.818 C 296.993 251.354,296.399 250.896,296.160 250.800 C 295.920 250.705,294.557 249.769,293.131 248.719 C 291.705 247.670,289.493 246.069,288.216 245.161 C 286.939 244.254,285.742 243.367,285.558 243.191 C 285.373 243.015,284.209 242.209,282.971 241.400 C 280.363 239.697,277.035 237.192,276.334 236.404 C 276.067 236.104,275.628 235.859,275.359 235.859 C 275.089 235.859,274.869 235.724,274.869 235.559 C 274.869 235.394,274.692 235.259,274.475 235.259 C 274.259 235.259,273.792 234.989,273.437 234.659 C 273.083 234.329,272.710 234.059,272.608 234.059 C 272.428 234.059,268.867 231.414,268.567 231.057 C 268.485 230.959,267.944 230.554,267.367 230.158 C 266.789 229.761,266.249 229.362,266.167 229.271 C 266.084 229.181,265.662 228.924,265.228 228.701 C 264.795 228.478,263.242 227.397,261.778 226.299 C 260.313 225.202,258.440 223.870,257.614 223.340 C 256.789 222.811,255.749 222.035,255.302 221.616 C 254.855 221.198,254.369 220.855,254.221 220.855 C 254.073 220.855,253.529 220.450,253.010 219.955 C 252.492 219.460,251.993 219.055,251.900 219.055 C 251.617 219.055,247.769 216.446,246.840 215.625 C 246.361 215.201,245.882 214.854,245.777 214.854 C 245.672 214.854,245.118 214.412,244.545 213.872 C 243.972 213.331,243.025 212.662,242.441 212.385 C 241.856 212.107,240.883 211.503,240.279 211.041 C 239.675 210.580,238.534 209.731,237.745 209.154 C 236.955 208.578,236.242 208.027,236.159 207.931 C 236.077 207.835,235.131 207.166,234.059 206.443 C 232.309 205.265,230.201 203.741,228.957 202.755 C 228.710 202.558,227.697 201.866,226.707 201.216 C 225.716 200.567,224.861 199.926,224.806 199.792 C 224.751 199.659,224.548 199.550,224.354 199.550 C 224.161 199.550,223.429 199.010,222.728 198.350 C 222.028 197.689,221.353 197.147,221.230 197.145 C 221.106 197.143,220.668 196.871,220.255 196.540 C 219.842 196.209,218.357 195.177,216.954 194.246 C 215.551 193.315,214.185 192.305,213.918 192.001 C 213.651 191.697,213.305 191.448,213.150 191.448 C 212.994 191.448,212.598 191.198,212.270 190.892 C 211.942 190.587,210.600 189.628,209.288 188.761 C 207.975 187.895,206.362 186.750,205.701 186.218 C 205.041 185.686,203.623 184.661,202.551 183.940 C 201.478 183.219,200.422 182.452,200.204 182.237 C 199.542 181.584,199.784 181.442,191.068 187.622 C 189.497 188.736,188.128 189.647,188.026 189.647 C 187.925 189.647,187.418 190.053,186.900 190.548 C 186.381 191.043,185.825 191.448,185.662 191.448 C 185.500 191.448,185.148 191.697,184.881 192.001 C 184.614 192.305,183.248 193.315,181.845 194.246 C 180.443 195.177,178.957 196.209,178.545 196.540 C 178.132 196.871,177.687 197.143,177.556 197.145 C 177.424 197.147,177.003 197.453,176.618 197.824 C 175.497 198.908,174.812 199.427,172.486 200.955 C 171.279 201.747,169.094 203.294,167.630 204.392 C 166.165 205.491,164.612 206.572,164.179 206.794 C 163.746 207.016,163.188 207.405,162.941 207.658 C 162.693 207.910,161.613 208.753,160.540 209.530 C 159.467 210.307,158.320 211.155,157.989 211.415 C 157.659 211.675,156.918 212.113,156.342 212.389 C 155.766 212.664,154.754 213.399,154.093 214.022 C 153.432 214.644,152.784 215.154,152.652 215.154 C 152.521 215.154,152.115 215.436,151.750 215.781 C 151.063 216.431,147.141 219.055,146.856 219.055 C 146.767 219.055,146.516 219.224,146.299 219.430 C 145.549 220.141,144.629 220.855,144.461 220.855 C 144.369 220.855,144.115 221.024,143.898 221.230 C 143.080 222.007,142.111 222.748,140.912 223.515 C 140.231 223.950,138.646 225.083,137.389 226.032 C 136.132 226.980,135.015 227.757,134.906 227.757 C 134.798 227.757,134.419 228.027,134.064 228.357 C 133.710 228.687,133.243 228.957,133.027 228.957 C 132.810 228.957,132.633 229.063,132.633 229.193 C 132.633 229.322,132.233 229.664,131.744 229.953 C 131.255 230.242,130.681 230.646,130.469 230.851 C 129.632 231.657,126.308 234.059,126.028 234.059 C 125.865 234.059,125.731 234.172,125.731 234.311 C 125.731 234.451,125.130 234.874,124.394 235.252 C 123.659 235.630,122.815 236.164,122.519 236.438 C 121.413 237.461,118.009 239.990,115.973 241.302 C 114.814 242.049,113.194 243.167,112.372 243.786 C 110.088 245.509,109.552 245.903,107.161 247.621 C 105.942 248.496,104.727 249.347,104.460 249.512 C 104.194 249.677,103.908 249.886,103.826 249.977 C 103.743 250.067,103.203 250.469,102.626 250.869 C 102.048 251.269,101.314 251.837,100.994 252.130 C 100.674 252.423,100.265 252.663,100.086 252.663 C 99.827 252.663,97.290 254.525,95.274 256.195 C 94.361 256.951,91.209 258.965,90.939 258.965 C 90.765 258.965,90.623 259.100,90.623 259.265 C 90.623 259.430,90.431 259.565,90.198 259.565 C 89.964 259.565,89.727 259.679,89.672 259.818 C 89.536 260.163,84.662 263.837,83.694 264.325 C 83.266 264.540,82.456 265.110,81.893 265.591 C 81.331 266.072,80.751 266.466,80.605 266.466 C 80.460 266.466,80.122 266.709,79.855 267.005 C 79.588 267.302,78.020 268.475,76.369 269.612 C 74.719 270.749,73.301 271.762,73.218 271.863 C 73.136 271.964,72.596 272.374,72.018 272.774 C 71.440 273.175,70.706 273.742,70.386 274.035 C 70.066 274.329,69.648 274.569,69.457 274.569 C 69.266 274.569,68.866 274.839,68.567 275.169 C 68.268 275.499,67.901 275.769,67.750 275.769 C 67.460 275.769,65.668 277.049,64.666 277.973 C 64.336 278.277,63.458 278.947,62.716 279.461 C 61.973 279.975,61.104 280.637,60.784 280.933 C 60.464 281.228,60.085 281.470,59.942 281.470 C 59.526 281.470,56.333 283.730,55.537 284.588 L 54.809 285.371 32.388 285.371 C 12.220 285.371,9.948 285.324,9.785 284.897 C 9.684 284.636,9.602 277.401,9.602 268.820 L 9.602 253.217 10.443 252.415 C 11.434 251.469,13.705 249.639,14.417 249.212 C 14.693 249.047,15.475 248.541,16.155 248.087 C 16.836 247.633,17.530 247.262,17.698 247.262 C 17.867 247.262,18.005 247.161,18.007 247.037 C 18.008 246.913,18.514 246.474,19.132 246.062 C 19.750 245.650,20.402 245.177,20.583 245.012 C 21.300 244.353,25.270 241.489,30.008 238.212 C 31.245 237.355,32.303 236.543,32.358 236.407 C 32.413 236.271,32.667 236.159,32.923 236.159 C 33.179 236.159,33.606 235.916,33.873 235.620 C 34.140 235.323,34.831 234.754,35.409 234.354 C 35.986 233.955,36.645 233.448,36.872 233.227 C 37.569 232.550,41.664 229.857,41.997 229.857 C 42.169 229.857,42.311 229.752,42.311 229.622 C 42.311 229.493,42.682 229.167,43.136 228.898 C 43.590 228.629,44.366 228.046,44.861 227.603 C 45.356 227.159,46.909 226.042,48.312 225.119 C 49.715 224.197,50.930 223.358,51.013 223.254 C 51.095 223.151,51.835 222.609,52.656 222.049 C 53.478 221.490,54.356 220.862,54.607 220.654 C 55.127 220.223,58.392 217.868,61.065 215.997 C 62.056 215.304,63.041 214.564,63.255 214.353 C 63.469 214.141,64.135 213.735,64.736 213.450 C 65.337 213.165,66.309 212.493,66.898 211.957 C 67.486 211.420,68.440 210.643,69.017 210.229 C 71.181 208.678,74.093 206.752,74.274 206.752 C 74.377 206.752,74.632 206.583,74.841 206.377 C 75.049 206.170,75.595 205.731,76.055 205.401 C 76.514 205.071,77.447 204.344,78.130 203.785 C 78.812 203.226,80.585 201.951,82.070 200.951 C 83.556 199.951,85.033 198.890,85.353 198.592 C 85.673 198.293,86.100 198.050,86.303 198.050 C 86.506 198.050,86.717 197.935,86.772 197.796 C 86.827 197.656,87.817 196.889,88.972 196.091 C 90.128 195.294,91.140 194.557,91.223 194.455 C 91.305 194.353,91.845 193.942,92.423 193.542 C 93.001 193.142,93.735 192.575,94.055 192.281 C 94.375 191.988,94.752 191.748,94.893 191.748 C 95.034 191.748,95.432 191.485,95.777 191.163 C 96.122 190.841,96.873 190.355,97.446 190.084 C 98.018 189.812,98.979 189.156,99.581 188.626 C 101.537 186.901,104.305 184.846,104.670 184.846 C 104.866 184.846,105.026 184.711,105.026 184.546 C 105.026 184.381,105.195 184.245,105.401 184.243 C 105.608 184.241,107.667 182.824,109.977 181.093 C 112.288 179.363,114.281 177.946,114.406 177.946 C 114.532 177.945,115.058 177.539,115.576 177.044 C 116.094 176.549,116.689 176.144,116.899 176.144 C 117.108 176.144,117.324 176.026,117.379 175.882 C 117.483 175.611,119.014 174.495,121.794 172.664 C 122.682 172.079,123.830 171.206,124.345 170.723 C 124.860 170.240,125.439 169.845,125.631 169.844 C 125.824 169.843,126.027 169.725,126.082 169.581 C 126.137 169.437,127.464 168.479,129.032 167.452 C 130.600 166.426,132.580 164.991,133.431 164.263 C 134.283 163.536,135.065 162.941,135.169 162.941 C 135.274 162.941,135.649 162.671,136.003 162.341 C 136.357 162.011,136.824 161.740,137.041 161.740 C 137.257 161.740,137.434 161.605,137.434 161.440 C 137.434 161.275,137.611 161.140,137.828 161.140 C 138.044 161.140,138.483 160.902,138.803 160.612 C 139.640 159.851,143.563 156.959,145.808 155.447 C 146.865 154.735,147.945 153.979,148.209 153.765 C 149.378 152.818,151.503 151.298,152.802 150.479 C 154.493 149.414,154.485 149.443,153.272 148.687 C 152.742 148.357,152.018 147.884,151.661 147.637 C 149.337 146.023,148.067 145.100,147.937 144.934 C 147.800 144.758,144.994 142.767,143.250 141.608 C 142.855 141.346,142.129 140.772,141.636 140.333 C 141.144 139.894,140.624 139.535,140.482 139.535 C 140.340 139.535,139.800 139.130,139.282 138.635 C 138.764 138.140,138.136 137.734,137.887 137.734 C 137.638 137.734,137.434 137.599,137.434 137.434 C 137.434 137.269,137.301 137.134,137.138 137.134 C 136.801 137.134,133.544 134.723,132.183 133.467 C 131.688 133.010,131.114 132.635,130.908 132.635 C 130.701 132.634,130.533 132.498,130.533 132.333 C 130.533 132.168,130.390 132.033,130.216 132.033 C 129.825 132.033,126.749 129.910,122.932 127.007 C 122.010 126.305,121.184 125.731,121.096 125.731 C 120.944 125.731,118.976 124.299,117.329 122.990 C 116.917 122.662,116.208 122.170,115.754 121.897 C 115.300 121.624,114.929 121.295,114.929 121.166 C 114.929 121.036,114.784 120.930,114.608 120.930 C 114.274 120.930,111.969 119.419,111.275 118.746 C 111.057 118.534,110.405 118.033,109.827 117.634 C 109.250 117.235,108.710 116.818,108.627 116.707 C 108.545 116.596,107.262 115.720,105.776 114.759 C 102.925 112.915,101.272 111.701,99.794 110.367 C 99.301 109.921,98.324 109.261,97.624 108.901 C 96.923 108.541,96.080 107.994,95.750 107.687 C 95.419 107.379,95.076 107.127,94.987 107.127 C 94.898 107.127,94.048 106.516,93.099 105.770 C 92.150 105.024,90.360 103.717,89.122 102.867 C 87.884 102.017,86.827 101.209,86.772 101.073 C 86.717 100.937,86.506 100.825,86.303 100.825 C 86.100 100.825,85.673 100.589,85.353 100.300 C 84.431 99.468,82.520 98.070,80.628 96.844 C 79.668 96.222,78.588 95.433,78.227 95.090 C 77.865 94.747,76.962 94.049,76.219 93.537 C 75.476 93.026,74.824 92.499,74.769 92.366 C 74.714 92.232,74.539 92.123,74.380 92.123 C 73.989 92.123,69.851 89.315,69.347 88.708 C 69.125 88.441,68.792 88.221,68.605 88.219 C 68.419 88.217,67.726 87.711,67.064 87.094 C 66.403 86.476,65.390 85.709,64.814 85.388 C 63.578 84.699,59.226 81.620,58.365 80.824 C 58.035 80.519,57.393 80.078,56.939 79.844 C 56.485 79.610,56.114 79.306,56.114 79.169 C 56.114 79.032,55.937 78.920,55.720 78.920 C 55.504 78.920,55.065 78.678,54.745 78.383 C 53.952 77.653,51.958 76.230,48.912 74.223 C 47.509 73.299,46.294 72.448,46.212 72.334 C 45.934 71.948,42.173 69.151,40.810 68.316 C 39.105 67.272,37.592 66.185,36.537 65.247 C 36.084 64.845,35.612 64.516,35.486 64.515 C 35.361 64.514,34.827 64.109,34.300 63.615 C 33.772 63.120,33.257 62.716,33.154 62.716 C 32.844 62.716,26.124 57.976,25.506 57.322 C 25.424 57.235,24.985 56.972,24.531 56.738 C 24.077 56.504,23.706 56.200,23.706 56.063 C 23.706 55.926,23.563 55.814,23.388 55.814 C 23.131 55.814,21.016 54.325,20.405 53.713 C 19.867 53.175,17.645 51.582,16.784 51.116 C 15.116 50.214,9.996 46.289,9.791 45.754 C 9.549 45.122,9.542 14.609,9.785 13.978 C 9.948 13.551,12.214 13.503,32.329 13.503 L 54.691 13.503 55.823 14.479 " stroke="none" fill="#0464bc" fill-rule="evenodd"></path><path id="path3" d="M54.474 13.789 C 54.810 13.925,55.275 14.265,55.507 14.545 C 55.739 14.825,56.545 15.458,57.297 15.951 C 58.134 16.501,58.340 16.578,57.827 16.151 C 57.367 15.768,56.473 15.015,55.841 14.479 C 55.208 13.942,54.505 13.512,54.277 13.522 C 54.050 13.533,54.138 13.653,54.474 13.789 M343.194 14.263 C 342.090 15.234,342.485 15.226,343.641 14.254 C 344.131 13.841,344.421 13.508,344.284 13.513 C 344.148 13.518,343.657 13.856,343.194 14.263 M9.742 29.857 C 9.742 38.605,9.780 42.140,9.827 37.713 C 9.874 33.287,9.874 26.130,9.827 21.809 C 9.780 17.489,9.742 21.110,9.742 29.857 M340.977 16.082 L 340.135 16.859 341.185 16.179 C 342.553 15.293,342.540 15.304,342.152 15.304 C 341.969 15.304,341.440 15.654,340.977 16.082 M59.740 17.523 C 60.278 18.033,64.895 21.326,64.968 21.251 C 65.094 21.121,60.151 17.404,59.852 17.404 C 59.722 17.404,59.671 17.458,59.740 17.523 M335.739 19.603 C 333.214 21.567,333.285 21.822,335.829 19.925 C 338.198 18.158,338.382 17.998,338.020 18.028 C 337.863 18.040,336.837 18.749,335.739 19.603 M66.317 22.325 C 66.317 22.400,67.329 23.140,68.567 23.967 C 69.805 24.795,70.818 25.378,70.818 25.262 C 70.818 25.146,70.581 24.903,70.293 24.723 C 70.004 24.542,68.991 23.898,68.042 23.291 C 67.093 22.684,66.317 22.249,66.317 22.325 M330.158 23.647 C 328.962 24.422,327.983 25.150,327.983 25.265 C 327.982 25.379,328.995 24.795,330.233 23.967 C 331.470 23.140,332.483 22.404,332.483 22.334 C 332.483 22.140,332.488 22.137,330.158 23.647 M73.668 27.539 C 74.162 28.073,80.550 32.476,80.173 32.022 C 79.983 31.792,78.373 30.616,76.597 29.409 C 74.821 28.202,73.503 27.360,73.668 27.539 M323.218 28.652 C 322.166 29.373,321.153 30.126,320.967 30.326 C 320.782 30.526,321.677 29.992,322.956 29.139 C 324.235 28.286,325.281 27.525,325.281 27.448 C 325.281 27.239,325.284 27.237,323.218 28.652 M319.268 31.530 L 318.230 32.451 319.355 31.644 C 320.349 30.930,320.673 30.608,320.394 30.608 C 320.346 30.608,319.840 31.022,319.268 31.530 M83.146 34.330 C 83.215 34.397,84.339 35.217,85.645 36.152 C 86.950 37.087,88.503 38.207,89.096 38.640 C 89.688 39.073,90.038 39.273,89.872 39.086 C 89.342 38.482,83.581 34.211,83.296 34.210 C 83.145 34.209,83.077 34.263,83.146 34.330 M312.378 36.340 C 310.810 37.512,309.325 38.684,309.077 38.946 C 308.602 39.450,309.459 38.860,312.722 36.439 C 313.818 35.625,314.966 34.798,315.272 34.601 C 315.578 34.405,315.694 34.236,315.529 34.227 C 315.364 34.218,313.946 35.169,312.378 36.340 M92.723 41.097 C 94.734 42.673,95.124 42.941,95.124 42.752 C 95.124 42.479,93.683 41.355,92.733 40.885 L 91.973 40.509 92.723 41.097 M305.915 40.915 C 305.002 41.431,303.676 42.518,303.676 42.752 C 303.676 42.864,304.047 42.670,304.501 42.321 C 304.955 41.971,305.664 41.425,306.077 41.107 C 306.910 40.466,306.845 40.389,305.915 40.915 M96.174 43.650 C 97.510 44.744,99.625 46.266,99.625 46.134 C 99.625 45.937,95.759 42.911,95.510 42.912 C 95.380 42.913,95.679 43.245,96.174 43.650 M301.225 44.353 C 298.361 46.724,298.478 46.841,301.425 44.555 C 303.498 42.947,303.541 42.908,303.211 42.927 C 303.054 42.937,302.160 43.578,301.225 44.353 M9.902 46.016 C 9.902 46.248,15.953 50.764,16.085 50.631 C 16.148 50.569,15.356 49.902,14.326 49.149 C 13.296 48.396,11.879 47.348,11.178 46.820 C 10.476 46.292,9.902 45.930,9.902 46.016 M386.347 47.736 C 384.199 49.355,382.541 50.780,383.796 49.928 C 385.163 49.002,388.897 46.158,388.897 46.045 C 388.897 45.821,388.823 45.870,386.347 47.736 M100.521 46.798 C 100.931 47.113,101.326 47.311,101.399 47.238 C 101.569 47.068,100.472 46.232,100.075 46.228 C 99.910 46.226,100.111 46.483,100.521 46.798 M297.846 46.668 C 297.528 46.909,297.328 47.165,297.401 47.238 C 297.474 47.311,297.869 47.113,298.279 46.798 C 298.689 46.483,298.890 46.226,298.725 46.228 C 298.560 46.229,298.164 46.428,297.846 46.668 M102.321 47.998 C 102.731 48.313,103.126 48.511,103.199 48.438 C 103.369 48.269,102.272 47.432,101.875 47.428 C 101.710 47.426,101.911 47.683,102.321 47.998 M293.623 49.752 C 292.798 50.377,291.307 51.443,290.310 52.120 C 289.314 52.797,288.312 53.574,288.085 53.848 C 287.857 54.122,289.315 53.178,291.323 51.749 C 294.478 49.506,295.593 48.608,295.217 48.613 C 295.166 48.614,294.449 49.126,293.623 49.752 M104.722 49.799 C 105.132 50.114,105.527 50.312,105.600 50.239 C 105.770 50.069,104.673 49.232,104.276 49.229 C 104.111 49.227,104.312 49.483,104.722 49.799 M105.926 50.510 C 105.926 50.583,107.100 51.479,108.534 52.502 C 109.968 53.525,110.975 54.162,110.771 53.916 C 110.357 53.417,105.926 50.302,105.926 50.510 M381.527 51.098 C 380.259 51.845,375.416 55.636,375.553 55.773 C 375.632 55.852,376.000 55.641,376.370 55.305 C 377.086 54.656,380.965 51.707,381.893 51.105 C 382.619 50.635,382.322 50.630,381.527 51.098 M19.965 53.298 C 21.124 54.371,23.146 55.874,23.268 55.752 C 23.335 55.685,22.689 55.097,21.833 54.447 C 19.994 53.048,19.108 52.503,19.965 53.298 M286.393 54.960 L 285.821 55.607 286.647 55.076 C 287.498 54.528,287.658 54.314,287.218 54.314 C 287.079 54.314,286.707 54.605,286.393 54.960 M23.706 56.035 C 23.706 56.327,24.917 57.104,25.095 56.926 C 25.166 56.854,24.883 56.572,24.465 56.298 C 24.048 56.024,23.706 55.906,23.706 56.035 M374.189 56.428 C 373.779 56.743,373.578 57.000,373.743 56.998 C 374.140 56.994,375.237 56.157,375.067 55.988 C 374.994 55.915,374.599 56.113,374.189 56.428 M283.992 56.761 L 283.421 57.407 284.246 56.876 C 285.097 56.329,285.258 56.114,284.818 56.114 C 284.678 56.114,284.307 56.405,283.992 56.761 M25.506 57.240 C 25.506 57.366,25.776 57.639,26.107 57.845 C 26.437 58.051,26.707 58.116,26.707 57.989 C 26.707 57.862,26.437 57.590,26.107 57.384 C 25.776 57.178,25.506 57.113,25.506 57.240 M372.082 57.928 L 371.043 58.841 372.164 58.153 C 372.781 57.774,373.288 57.363,373.290 57.239 C 373.295 56.892,373.195 56.949,372.082 57.928 M116.121 57.831 C 116.529 58.124,117.928 59.151,119.228 60.112 C 120.529 61.073,121.505 61.717,121.398 61.544 C 121.120 61.094,117.024 58.065,116.129 57.647 L 115.379 57.297 116.121 57.831 M282.140 57.914 C 281.785 58.245,281.424 58.515,281.336 58.515 C 281.082 58.515,277.608 61.210,277.373 61.590 C 277.256 61.779,277.961 61.330,278.940 60.592 C 279.919 59.854,281.294 58.863,281.995 58.391 C 282.697 57.919,283.271 57.484,283.271 57.424 C 283.271 57.135,282.719 57.374,282.140 57.914 M27.112 58.436 C 27.374 58.867,32.830 62.716,33.180 62.716 C 33.309 62.716,32.454 62.053,31.278 61.244 C 30.103 60.434,28.634 59.388,28.014 58.918 C 27.394 58.449,26.988 58.231,27.112 58.436 M369.842 59.602 C 369.303 60.061,369.193 60.244,369.567 60.058 C 370.117 59.785,371.149 58.797,370.854 58.825 C 370.793 58.831,370.338 59.181,369.842 59.602 M366.092 62.226 C 355.841 69.458,355.206 69.929,357.377 68.692 C 358.279 68.178,359.359 67.492,359.778 67.167 C 362.075 65.387,364.988 63.264,366.839 62.022 C 367.992 61.248,368.802 60.620,368.639 60.627 C 368.476 60.633,367.329 61.353,366.092 62.226 M33.625 62.928 C 33.646 63.233,35.399 64.626,35.560 64.465 C 35.627 64.398,35.215 63.972,34.645 63.517 C 34.075 63.062,33.616 62.797,33.625 62.928 M124.873 64.190 C 125.263 64.506,125.639 64.707,125.710 64.637 C 125.864 64.484,124.789 63.639,124.423 63.625 C 124.281 63.620,124.483 63.874,124.873 64.190 M273.218 64.279 C 270.687 66.090,266.767 69.096,266.767 69.227 C 266.767 69.308,267.408 68.892,268.192 68.301 C 268.976 67.711,270.749 66.415,272.131 65.422 C 273.514 64.428,274.527 63.620,274.382 63.625 C 274.237 63.631,273.713 63.925,273.218 64.279 M126.834 65.501 C 127.300 65.877,128.188 66.552,128.807 67.001 C 129.426 67.450,130.405 68.171,130.983 68.603 C 131.560 69.035,132.033 69.318,132.033 69.231 C 132.033 69.145,131.054 68.354,129.857 67.473 C 128.661 66.592,127.420 65.634,127.100 65.344 C 126.780 65.054,126.399 64.816,126.252 64.816 C 126.105 64.816,126.367 65.124,126.834 65.501 M37.263 65.766 C 38.979 67.262,42.011 69.265,42.011 68.904 C 42.011 68.829,41.369 68.356,40.585 67.852 C 39.801 67.348,38.552 66.515,37.809 66.001 C 37.067 65.487,36.821 65.381,37.263 65.766 M42.416 69.244 C 42.533 69.434,43.054 69.892,43.574 70.263 C 44.094 70.633,44.423 70.780,44.306 70.591 C 44.189 70.401,43.667 69.943,43.148 69.572 C 42.628 69.202,42.298 69.055,42.416 69.244 M354.400 70.547 C 353.829 71.026,353.491 71.414,353.650 71.408 C 353.996 71.397,355.705 69.932,355.549 69.781 C 355.488 69.723,354.971 70.068,354.400 70.547 M134.134 70.608 C 134.134 70.784,139.193 74.517,141.635 76.143 C 143.155 77.155,143.354 77.235,142.536 76.508 C 141.958 75.995,141.089 75.366,140.605 75.111 C 140.120 74.855,138.905 74.015,137.904 73.245 C 135.555 71.437,134.134 70.443,134.134 70.608 M263.466 71.285 C 262.888 71.690,262.213 72.192,261.965 72.399 C 261.718 72.607,261.043 73.106,260.465 73.508 C 259.887 73.910,259.347 74.314,259.265 74.405 C 259.182 74.495,258.733 74.766,258.267 75.007 C 257.800 75.248,256.923 75.900,256.316 76.456 C 255.237 77.446,255.235 77.452,256.210 76.768 C 256.757 76.384,257.637 75.799,258.164 75.469 C 259.398 74.697,264.666 70.775,264.666 70.629 C 264.666 70.455,264.583 70.500,263.466 71.285 M351.999 72.347 C 351.428 72.826,351.090 73.218,351.249 73.218 C 351.610 73.217,353.330 71.758,353.162 71.596 C 353.094 71.530,352.571 71.868,351.999 72.347 M46.213 72.232 C 46.213 72.362,47.395 73.240,48.838 74.183 C 50.282 75.127,52.037 76.316,52.738 76.825 C 53.440 77.335,54.014 77.696,54.014 77.627 C 54.014 77.467,50.531 74.899,48.087 73.256 C 47.056 72.563,46.212 72.102,46.213 72.232 M349.737 73.884 C 346.953 75.883,345.354 77.119,345.554 77.119 C 345.679 77.119,346.469 76.598,347.309 75.962 C 348.150 75.325,349.276 74.554,349.812 74.247 C 350.349 73.940,350.788 73.583,350.788 73.454 C 350.788 73.136,350.767 73.145,349.737 73.884 M54.314 77.940 C 54.314 78.233,55.524 79.009,55.703 78.831 C 55.774 78.760,55.491 78.477,55.073 78.203 C 54.655 77.930,54.314 77.811,54.314 77.940 M343.581 78.333 C 343.171 78.649,342.971 78.905,343.136 78.904 C 343.533 78.900,344.629 78.063,344.460 77.893 C 344.387 77.820,343.992 78.018,343.581 78.333 M144.932 78.606 C 145.342 78.921,145.737 79.119,145.810 79.046 C 145.980 78.876,144.883 78.040,144.486 78.036 C 144.321 78.034,144.522 78.291,144.932 78.606 M253.435 78.476 C 253.117 78.717,252.917 78.973,252.990 79.046 C 253.063 79.119,253.458 78.921,253.868 78.606 C 254.278 78.291,254.479 78.034,254.314 78.036 C 254.149 78.037,253.753 78.235,253.435 78.476 M56.114 79.141 C 56.114 79.433,57.325 80.209,57.503 80.031 C 57.575 79.960,57.291 79.677,56.874 79.404 C 56.456 79.130,56.114 79.012,56.114 79.141 M341.781 79.534 C 341.371 79.849,341.170 80.105,341.335 80.104 C 341.732 80.100,342.829 79.263,342.659 79.093 C 342.586 79.020,342.191 79.219,341.781 79.534 M146.737 79.962 C 146.737 80.041,147.176 80.330,147.712 80.605 C 148.248 80.880,150.004 82.094,151.613 83.303 C 153.222 84.513,154.536 85.405,154.533 85.287 C 154.516 84.709,146.737 79.396,146.737 79.962 M249.760 81.110 C 246.771 83.144,244.267 85.054,244.264 85.301 C 244.262 85.428,245.105 84.872,246.137 84.065 C 247.168 83.258,248.949 81.973,250.093 81.209 C 251.238 80.445,252.048 79.827,251.894 79.835 C 251.739 79.843,250.779 80.417,249.760 81.110 M338.883 81.648 C 337.865 82.446,336.118 83.711,335.002 84.460 C 333.885 85.209,333.066 85.821,333.182 85.821 C 333.535 85.821,334.623 85.135,336.521 83.714 C 337.519 82.968,338.672 82.129,339.085 81.849 C 340.349 80.992,340.998 80.432,340.863 80.312 C 340.793 80.250,339.902 80.851,338.883 81.648 M59.389 81.585 C 60.550 82.618,65.238 85.821,65.590 85.821 C 65.717 85.821,64.683 85.059,63.293 84.126 C 61.903 83.194,60.698 82.343,60.615 82.236 C 60.533 82.129,59.992 81.734,59.415 81.357 L 58.365 80.673 59.389 81.585 M67.432 87.339 C 67.963 87.890,68.463 88.276,68.544 88.196 C 68.624 88.115,68.189 87.664,67.578 87.193 L 66.467 86.337 67.432 87.339 M330.983 87.322 C 330.405 87.808,330.041 88.210,330.174 88.214 C 330.307 88.218,330.847 87.818,331.374 87.323 C 332.603 86.171,332.351 86.170,330.983 87.322 M157.235 87.308 C 157.645 87.623,158.040 87.821,158.113 87.748 C 158.283 87.579,157.186 86.742,156.789 86.738 C 156.624 86.736,156.825 86.993,157.235 87.308 M240.960 87.338 C 240.548 87.669,239.535 88.402,238.710 88.966 C 237.884 89.530,236.737 90.419,236.159 90.941 L 235.109 91.890 236.159 91.117 C 236.737 90.691,238.323 89.575,239.685 88.637 C 241.047 87.699,242.161 86.884,242.161 86.826 C 242.161 86.567,241.649 86.785,240.960 87.338 M158.605 88.174 C 158.761 88.312,159.767 89.078,160.840 89.875 C 161.913 90.673,162.959 91.454,163.166 91.611 C 163.372 91.768,163.541 91.818,163.541 91.723 C 163.541 91.497,158.845 87.922,158.547 87.922 C 158.422 87.922,158.448 88.035,158.605 88.174 M69.309 88.656 C 69.876 89.347,74.123 92.218,74.307 92.035 C 74.383 91.959,73.844 91.543,73.109 91.113 C 72.374 90.682,71.119 89.832,70.320 89.224 C 69.521 88.616,69.066 88.360,69.309 88.656 M328.732 88.996 C 328.237 89.410,327.053 90.236,326.102 90.831 C 325.150 91.427,324.433 91.975,324.508 92.050 C 324.667 92.209,328.994 89.261,329.506 88.644 C 330.022 88.022,329.749 88.147,328.732 88.996 M164.867 92.683 C 165.135 93.118,167.743 94.849,167.737 94.588 C 167.734 94.470,167.044 93.924,166.204 93.375 C 165.364 92.825,164.762 92.514,164.867 92.683 M232.489 93.418 C 231.708 93.943,231.066 94.475,231.063 94.598 C 231.060 94.722,231.733 94.338,232.558 93.745 C 233.383 93.152,234.059 92.612,234.059 92.545 C 234.059 92.364,234.027 92.382,232.489 93.418 M321.680 93.923 C 321.268 94.246,321.078 94.513,321.259 94.517 C 321.440 94.521,321.832 94.254,322.131 93.923 C 322.815 93.167,322.647 93.167,321.680 93.923 M78.623 95.338 C 78.625 95.468,79.064 95.855,79.599 96.198 C 80.133 96.541,80.941 97.063,81.395 97.358 C 83.028 98.418,82.180 97.519,80.420 96.324 C 79.430 95.652,78.621 95.208,78.623 95.338 M317.395 96.978 C 315.945 97.983,314.832 98.878,314.920 98.966 C 315.009 99.055,315.384 98.858,315.755 98.530 C 316.126 98.202,317.272 97.402,318.302 96.754 C 319.332 96.105,320.176 95.473,320.177 95.349 C 320.181 95.033,320.299 94.964,317.395 96.978 M170.443 96.727 C 170.443 96.804,171.219 97.373,172.168 97.992 C 173.117 98.612,174.467 99.579,175.169 100.142 C 175.870 100.705,176.444 101.070,176.444 100.953 C 176.444 100.678,175.850 100.211,173.289 98.474 C 170.647 96.683,170.443 96.557,170.443 96.727 M226.086 98.058 C 223.643 99.689,222.356 100.684,222.356 100.941 C 222.356 101.039,223.132 100.543,224.081 99.838 C 225.030 99.132,226.380 98.170,227.082 97.699 C 228.171 96.968,228.589 96.597,228.282 96.633 C 228.241 96.638,227.252 97.279,226.086 98.058 M82.628 98.056 C 82.866 98.440,84.621 99.739,84.621 99.531 C 84.621 99.457,84.125 99.018,83.520 98.556 C 82.914 98.094,82.513 97.869,82.628 98.056 M313.128 100.084 C 312.633 100.490,312.363 100.823,312.528 100.823 C 312.693 100.824,313.221 100.487,313.700 100.075 C 314.827 99.105,314.312 99.114,313.128 100.084 M84.921 99.846 C 84.921 100.138,86.132 100.915,86.310 100.737 C 86.382 100.665,86.099 100.382,85.681 100.109 C 85.263 99.835,84.921 99.717,84.921 99.846 M86.727 101.051 C 86.733 101.280,89.722 103.332,89.722 103.106 C 89.722 103.038,89.047 102.497,88.222 101.904 C 87.397 101.311,86.724 100.927,86.727 101.051 M310.025 102.234 C 308.979 102.944,308.238 103.526,308.379 103.526 C 308.580 103.526,311.482 101.713,312.053 101.231 C 312.831 100.573,311.502 101.231,310.025 102.234 M179.145 103.047 C 179.145 103.114,179.740 103.518,180.468 103.944 C 181.195 104.370,182.410 105.192,183.168 105.771 C 183.926 106.349,184.546 106.722,184.546 106.600 C 184.546 106.375,179.635 102.926,179.316 102.926 C 179.222 102.926,179.145 102.980,179.145 103.047 M216.804 104.613 C 215.484 105.527,214.134 106.547,213.803 106.878 C 213.473 107.209,214.283 106.712,215.603 105.772 C 216.923 104.833,218.375 103.872,218.829 103.637 C 219.627 103.225,219.895 102.913,219.430 102.937 C 219.306 102.944,218.125 103.698,216.804 104.613 M91.027 104.052 C 91.320 104.526,94.767 107.127,95.102 107.127 C 95.252 107.127,95.419 107.233,95.474 107.363 C 95.625 107.720,97.540 109.012,97.692 108.860 C 97.765 108.787,97.048 108.203,96.099 107.562 C 95.150 106.921,93.573 105.791,92.594 105.052 C 91.615 104.312,90.910 103.862,91.027 104.052 M306.827 104.593 C 306.332 105.002,304.811 106.099,303.448 107.030 C 302.085 107.960,301.039 108.790,301.123 108.875 C 301.207 108.959,301.808 108.600,302.458 108.077 C 303.109 107.554,303.715 107.127,303.805 107.127 C 304.039 107.127,307.525 104.453,307.736 104.111 C 308.005 103.676,307.809 103.779,306.827 104.593 M298.408 110.559 C 297.739 111.121,296.196 112.266,294.979 113.104 C 293.762 113.943,292.863 114.629,292.980 114.629 C 293.445 114.629,297.446 111.799,299.025 110.354 C 300.292 109.194,299.867 109.336,298.408 110.559 M189.047 109.976 C 189.047 110.039,189.959 110.711,191.073 111.471 C 192.187 112.231,193.537 113.202,194.074 113.629 C 194.610 114.056,195.049 114.333,195.049 114.244 C 195.049 114.155,194.004 113.293,192.727 112.330 C 190.532 110.674,189.047 109.724,189.047 109.976 M207.610 111.261 C 206.514 112.040,204.460 113.488,203.046 114.479 C 201.631 115.469,200.469 116.382,200.462 116.507 C 200.456 116.633,201.429 116.027,202.626 115.160 C 209.895 109.893,209.945 109.856,209.752 109.849 C 209.670 109.846,208.706 110.481,207.610 111.261 M100.537 110.928 C 100.553 111.291,107.427 116.030,107.427 115.678 C 107.427 115.606,106.380 114.846,105.101 113.990 C 103.822 113.133,102.269 112.038,101.650 111.555 C 101.032 111.072,100.530 110.790,100.537 110.928 M195.349 114.441 C 195.349 114.915,199.343 117.354,199.790 117.153 C 200.216 116.962,200.179 116.903,199.566 116.798 C 199.163 116.729,198.049 116.140,197.091 115.489 C 196.133 114.839,195.349 114.367,195.349 114.441 M108.627 116.654 C 108.627 116.781,108.897 117.054,109.227 117.260 C 109.557 117.466,109.827 117.531,109.827 117.404 C 109.827 117.277,109.557 117.005,109.227 116.799 C 108.897 116.593,108.627 116.528,108.627 116.654 M289.268 117.043 C 288.858 117.358,288.657 117.615,288.822 117.613 C 289.219 117.609,290.316 116.772,290.146 116.603 C 290.073 116.530,289.678 116.728,289.268 117.043 M111.031 118.470 C 111.036 118.749,114.330 121.029,114.493 120.866 C 114.563 120.796,113.812 120.181,112.824 119.499 C 111.836 118.818,111.029 118.354,111.031 118.470 M285.606 119.689 C 284.497 120.454,283.350 121.343,283.055 121.664 C 282.537 122.230,282.539 122.234,283.121 121.814 C 283.451 121.576,283.788 121.306,283.871 121.216 C 283.953 121.125,284.629 120.701,285.372 120.272 C 286.115 119.843,286.979 119.208,287.294 118.861 C 288.056 118.018,287.950 118.070,285.606 119.689 M117.333 122.940 C 117.335 123.073,117.808 123.486,118.383 123.859 C 119.732 124.732,119.730 124.531,118.380 123.501 C 117.802 123.061,117.331 122.808,117.333 122.940 M280.120 123.690 C 278.308 125.017,278.121 125.352,279.820 124.227 C 281.647 123.017,281.599 123.056,281.445 122.921 C 281.377 122.861,280.780 123.207,280.120 123.690 M120.247 125.153 C 120.613 125.536,120.989 125.773,121.081 125.680 C 121.174 125.588,120.873 125.276,120.414 124.986 L 119.580 124.459 120.247 125.153 M121.530 125.833 C 121.530 125.911,122.227 126.494,123.078 127.129 C 127.625 130.519,129.954 132.112,130.121 131.945 C 130.199 131.867,129.570 131.377,128.723 130.856 C 127.876 130.334,126.350 129.267,125.332 128.483 C 122.909 126.617,121.530 125.656,121.530 125.833 M273.243 128.595 C 271.607 129.826,270.376 130.833,270.508 130.833 C 270.769 130.833,276.369 126.647,276.369 126.451 C 276.369 126.249,276.306 126.292,273.243 128.595 M269.163 131.447 C 268.753 131.762,268.552 132.018,268.717 132.017 C 269.114 132.013,270.211 131.176,270.041 131.006 C 269.968 130.933,269.573 131.132,269.163 131.447 M267.048 132.957 L 266.017 133.870 267.067 133.177 C 267.644 132.797,268.173 132.451,268.242 132.409 C 268.311 132.367,268.302 132.268,268.223 132.189 C 268.144 132.110,267.615 132.456,267.048 132.957 M132.946 134.074 C 132.963 134.334,136.867 137.201,137.010 137.058 C 137.067 137.001,136.173 136.259,135.024 135.410 C 133.874 134.560,132.939 133.959,132.946 134.074 M265.108 134.404 C 264.782 134.717,263.580 135.595,262.435 136.354 C 261.290 137.113,260.480 137.725,260.634 137.713 C 261.169 137.671,264.649 135.299,265.388 134.473 C 266.097 133.679,265.908 133.633,265.108 134.404 M139.235 138.556 C 139.235 138.848,140.446 139.624,140.624 139.446 C 140.695 139.375,140.412 139.092,139.994 138.818 C 139.577 138.545,139.235 138.426,139.235 138.556 M258.660 138.949 C 258.250 139.264,258.050 139.520,258.215 139.519 C 258.612 139.515,259.708 138.678,259.539 138.508 C 259.466 138.435,259.070 138.633,258.660 138.949 M141.747 140.373 C 141.878 140.584,142.429 141.056,142.972 141.422 C 144.645 142.547,147.704 144.701,148.209 145.109 C 149.735 146.346,151.613 147.662,151.711 147.564 C 151.815 147.460,147.976 144.524,145.737 142.998 C 145.214 142.641,144.049 141.818,143.148 141.169 C 142.246 140.519,141.616 140.161,141.747 140.373 M254.764 141.772 C 248.955 145.966,248.098 146.605,247.939 146.858 C 247.776 147.119,248.198 146.830,252.622 143.658 C 253.717 142.872,255.109 141.899,255.714 141.494 C 256.650 140.869,257.420 140.120,257.107 140.141 C 257.056 140.145,256.002 140.878,254.764 141.772 M152.553 148.184 C 152.863 148.535,153.370 148.902,153.678 149.000 C 154.527 149.269,154.371 149.498,152.592 150.595 C 151.694 151.149,150.785 151.813,150.573 152.071 C 150.361 152.329,151.167 151.880,152.363 151.073 C 154.922 149.347,154.889 149.446,153.263 148.382 C 152.241 147.713,152.100 147.673,152.553 148.184 M244.866 148.823 C 244.456 149.138,244.185 149.461,244.266 149.540 C 244.786 150.056,248.537 152.456,248.227 152.075 C 248.015 151.815,247.106 151.149,246.207 150.595 C 244.411 149.488,244.270 149.270,245.161 148.987 C 245.491 148.882,245.761 148.671,245.761 148.517 C 245.761 148.147,245.733 148.157,244.866 148.823 M144.048 156.649 C 142.652 157.632,141.302 158.665,141.048 158.945 C 140.793 159.224,141.058 159.109,141.635 158.688 C 142.213 158.268,143.597 157.287,144.711 156.508 C 146.423 155.312,147.032 154.794,146.662 154.850 C 146.620 154.856,145.444 155.666,144.048 156.649 M252.063 154.946 C 252.063 155.090,254.498 156.899,256.264 158.067 L 257.314 158.761 256.414 157.993 C 254.910 156.709,252.063 154.715,252.063 154.946 M136.106 162.197 C 135.788 162.438,135.587 162.694,135.660 162.767 C 135.733 162.840,136.128 162.642,136.539 162.327 C 136.949 162.012,137.149 161.755,136.984 161.757 C 136.819 161.758,136.424 161.956,136.106 162.197 M261.665 161.850 C 261.665 161.910,262.239 162.346,262.941 162.819 C 263.642 163.291,264.824 164.139,265.566 164.701 L 266.917 165.725 265.416 164.344 C 264.591 163.585,263.809 162.959,263.678 162.952 C 263.548 162.946,263.151 162.671,262.797 162.341 C 262.217 161.801,261.665 161.561,261.665 161.850 M133.383 164.344 L 131.883 165.725 133.383 164.582 C 135.372 163.066,135.512 162.938,135.169 162.952 C 135.012 162.959,134.209 163.585,133.383 164.344 M130.665 166.382 C 130.345 166.624,130.218 166.823,130.383 166.823 C 130.548 166.823,130.945 166.624,131.265 166.382 C 131.586 166.140,131.713 165.941,131.548 165.941 C 131.383 165.941,130.985 166.140,130.665 166.382 M268.867 166.957 C 268.867 167.033,269.754 167.715,270.838 168.473 C 271.922 169.231,272.724 169.713,272.620 169.545 C 272.399 169.188,268.867 166.753,268.867 166.957 M127.462 168.436 C 126.681 168.962,126.040 169.493,126.037 169.617 C 126.034 169.740,126.707 169.356,127.532 168.764 C 128.357 168.171,129.032 167.631,129.032 167.564 C 129.032 167.383,129.001 167.400,127.462 168.436 M124.345 170.723 C 123.830 171.206,122.657 172.081,121.739 172.669 C 120.821 173.256,119.975 173.889,119.860 174.076 C 119.622 174.461,123.608 171.758,124.981 170.603 C 125.476 170.186,125.746 169.845,125.581 169.845 C 125.416 169.845,124.860 170.240,124.345 170.723 M273.818 170.603 C 275.175 171.744,279.179 174.464,278.945 174.085 C 278.833 173.903,277.836 173.164,276.730 172.444 C 275.624 171.723,274.461 170.843,274.147 170.488 C 273.833 170.133,273.428 169.843,273.247 169.844 C 273.066 169.845,273.323 170.186,273.818 170.603 M280.270 175.182 C 280.848 175.679,281.378 176.030,281.448 175.962 C 281.593 175.822,280.727 175.101,279.820 174.606 C 279.490 174.425,279.692 174.684,280.270 175.182 M116.001 176.601 C 115.683 176.841,115.482 177.098,115.555 177.171 C 115.628 177.244,116.023 177.045,116.434 176.730 C 116.844 176.415,117.044 176.159,116.879 176.160 C 116.714 176.162,116.319 176.360,116.001 176.601 M282.521 176.885 C 283.705 177.855,284.220 177.864,283.092 176.895 C 282.613 176.482,282.086 176.145,281.920 176.146 C 281.755 176.147,282.026 176.479,282.521 176.885 M112.153 179.448 C 111.039 180.270,110.128 181.010,110.128 181.093 C 110.128 181.176,110.920 180.670,111.889 179.969 C 112.858 179.268,113.904 178.534,114.214 178.337 C 114.525 178.141,114.644 177.974,114.479 177.967 C 114.314 177.959,113.267 178.626,112.153 179.448 M284.171 178.050 C 284.171 178.108,284.812 178.571,285.596 179.080 C 286.380 179.589,287.420 180.316,287.907 180.695 C 288.394 181.073,288.691 181.219,288.568 181.019 C 288.134 180.318,284.171 177.641,284.171 178.050 M196.774 183.214 C 195.495 184.121,194.449 184.936,194.449 185.025 C 194.449 185.113,195.549 184.428,196.895 183.501 C 198.240 182.574,199.530 181.889,199.761 181.977 C 199.992 182.066,200.099 182.005,199.998 181.842 C 199.670 181.311,199.136 181.538,196.774 183.214 M200.456 182.368 C 200.460 182.493,201.352 183.180,202.439 183.894 C 203.526 184.608,204.332 185.058,204.231 184.894 C 203.957 184.451,200.449 182.103,200.456 182.368 M101.828 186.783 C 100.482 187.845,99.283 188.872,99.163 189.067 C 99.043 189.261,99.721 188.787,100.670 188.014 C 101.618 187.242,102.919 186.262,103.560 185.838 C 104.202 185.414,104.726 185.017,104.726 184.956 C 104.726 184.609,104.018 185.055,101.828 186.783 M294.074 184.945 C 294.074 185.000,294.715 185.497,295.499 186.050 C 296.283 186.604,297.599 187.601,298.425 188.267 C 299.250 188.933,299.657 189.167,299.330 188.787 C 299.003 188.407,298.058 187.603,297.230 187.001 C 296.402 186.398,295.462 185.667,295.142 185.376 C 294.621 184.901,294.074 184.681,294.074 184.945 M192.948 186.083 C 191.902 187.000,191.902 187.001,192.864 186.361 C 193.396 186.008,193.910 185.590,194.007 185.432 C 194.297 184.964,194.057 185.112,192.948 186.083 M204.651 185.254 C 204.651 185.340,205.428 185.996,206.377 186.712 C 208.446 188.271,211.553 190.311,211.553 190.110 C 211.553 190.031,210.506 189.265,209.227 188.409 C 207.948 187.552,206.395 186.456,205.776 185.974 C 205.158 185.491,204.651 185.167,204.651 185.254 M189.652 188.315 C 188.581 189.048,187.812 189.647,187.943 189.647 C 188.232 189.647,191.748 187.280,191.748 187.086 C 191.748 186.879,191.750 186.878,189.652 188.315 M96.403 190.641 C 95.869 191.002,95.430 191.395,95.428 191.514 C 95.425 191.692,97.343 190.529,97.792 190.080 C 98.176 189.696,97.245 190.072,96.403 190.641 M186.197 190.707 C 185.701 191.113,185.431 191.445,185.596 191.446 C 185.761 191.447,186.289 191.110,186.768 190.697 C 187.896 189.728,187.380 189.737,186.197 190.707 M300.975 190.058 C 300.975 190.118,301.515 190.525,302.176 190.962 C 302.836 191.399,303.374 191.653,303.372 191.527 C 303.370 191.401,302.899 190.994,302.326 190.623 C 301.318 189.970,300.975 189.826,300.975 190.058 M211.853 190.469 C 211.853 190.761,213.064 191.537,213.242 191.359 C 213.313 191.288,213.030 191.005,212.613 190.731 C 212.195 190.458,211.853 190.339,211.853 190.469 M94.055 192.281 C 93.735 192.575,93.001 193.147,92.423 193.552 C 90.909 194.616,88.893 196.289,89.558 195.929 C 89.919 195.734,94.530 192.380,94.959 192.000 C 95.137 191.842,95.130 191.748,94.940 191.748 C 94.773 191.748,94.375 191.988,94.055 192.281 M303.841 192.000 C 304.136 192.261,308.581 195.525,309.377 196.065 C 309.702 196.285,309.744 196.278,309.527 196.038 C 309.068 195.530,303.979 191.748,303.754 191.748 C 303.645 191.748,303.684 191.862,303.841 192.000 M183.196 193.007 C 182.536 193.484,181.354 194.286,180.570 194.788 C 179.786 195.290,179.145 195.767,179.145 195.849 C 179.145 196.071,182.442 193.980,184.521 192.441 C 184.590 192.390,184.590 192.301,184.521 192.244 C 184.452 192.186,183.856 192.530,183.196 193.007 M214.259 192.264 C 214.267 192.597,219.655 196.169,219.655 195.840 C 219.655 195.762,219.149 195.390,218.530 195.014 C 217.911 194.638,216.695 193.813,215.829 193.180 C 214.962 192.547,214.256 192.135,214.259 192.264 M310.878 197.087 C 311.455 197.584,311.986 197.935,312.056 197.867 C 312.200 197.728,311.334 197.007,310.428 196.511 C 310.098 196.331,310.300 196.590,310.878 197.087 M222.372 197.962 C 222.394 198.267,224.146 199.660,224.307 199.499 C 224.374 199.432,223.962 199.006,223.392 198.551 C 222.822 198.096,222.363 197.831,222.372 197.962 M85.393 198.506 C 85.075 198.747,84.875 199.003,84.948 199.076 C 85.021 199.149,85.416 198.951,85.826 198.636 C 86.236 198.321,86.437 198.064,86.272 198.066 C 86.107 198.067,85.711 198.265,85.393 198.506 M312.974 198.636 C 313.384 198.951,313.779 199.149,313.852 199.076 C 314.022 198.906,312.925 198.070,312.528 198.066 C 312.363 198.064,312.564 198.321,312.974 198.636 M172.340 200.709 C 170.990 201.640,168.742 203.233,167.343 204.249 C 165.945 205.266,164.506 206.256,164.145 206.449 C 163.785 206.642,163.559 206.870,163.644 206.955 C 163.816 207.127,165.765 205.842,168.492 203.757 C 169.482 202.999,171.305 201.724,172.543 200.922 C 175.152 199.232,175.082 199.285,174.919 199.134 C 174.850 199.070,173.689 199.779,172.340 200.709 M81.620 201.235 C 80.053 202.312,78.500 203.470,78.170 203.806 C 77.563 204.425,82.190 201.333,83.865 200.000 C 85.487 198.708,84.532 199.234,81.620 201.235 M224.762 199.773 C 224.770 200.037,228.344 202.364,228.501 202.206 C 228.558 202.148,227.740 201.526,226.681 200.823 C 225.622 200.121,224.759 199.648,224.762 199.773 M316.744 201.298 C 317.587 202.032,321.145 204.399,320.964 204.105 C 320.697 203.673,317.041 201.050,316.706 201.050 C 316.570 201.050,316.587 201.162,316.744 201.298 M230.013 203.601 C 234.108 206.480,235.859 207.658,235.859 207.535 C 235.859 207.330,229.062 202.551,228.771 202.551 C 228.632 202.551,229.191 203.023,230.013 203.601 M321.380 204.576 C 321.380 204.703,321.650 204.976,321.980 205.182 C 322.311 205.388,322.581 205.453,322.581 205.326 C 322.581 205.199,322.311 204.927,321.980 204.721 C 321.650 204.515,321.380 204.450,321.380 204.576 M72.300 207.893 C 71.383 208.503,70.211 209.340,69.695 209.752 C 69.180 210.165,68.280 210.840,67.696 211.253 C 67.111 211.665,66.629 212.100,66.625 212.218 C 66.620 212.337,67.933 211.444,69.542 210.235 C 71.152 209.026,72.907 207.811,73.443 207.536 C 74.367 207.063,74.689 206.733,74.194 206.768 C 74.070 206.776,73.218 207.283,72.300 207.893 M324.381 206.873 C 324.381 206.940,324.975 207.343,325.702 207.769 C 326.428 208.194,328.218 209.436,329.678 210.528 C 331.138 211.619,331.995 212.168,331.583 211.747 C 330.765 210.913,329.801 210.197,326.697 208.116 C 324.737 206.802,324.381 206.611,324.381 206.873 M161.424 208.514 C 160.855 208.980,159.253 210.124,157.862 211.057 C 156.472 211.990,155.422 212.753,155.528 212.753 C 155.773 212.753,157.761 211.640,158.233 211.239 C 158.831 210.729,161.861 208.525,162.338 208.253 C 162.584 208.112,162.712 207.923,162.621 207.833 C 162.531 207.742,161.992 208.049,161.424 208.514 M236.173 207.839 C 236.181 207.983,236.870 208.575,237.704 209.152 C 238.538 209.730,239.578 210.490,240.015 210.841 C 240.883 211.538,243.061 212.814,243.061 212.626 C 243.061 212.561,241.947 211.749,240.585 210.820 C 239.224 209.892,237.671 208.782,237.134 208.354 C 236.598 207.925,236.165 207.694,236.173 207.839 M153.350 214.283 C 152.778 214.762,152.441 215.150,152.599 215.144 C 152.946 215.133,154.655 213.668,154.498 213.517 C 154.438 213.459,153.921 213.804,153.350 214.283 M244.261 213.493 C 244.261 213.627,244.497 213.923,244.786 214.151 C 245.414 214.644,246.641 215.342,246.212 214.961 C 244.650 213.575,244.261 213.283,244.261 213.493 M63.488 214.110 C 63.170 214.351,62.969 214.607,63.042 214.680 C 63.115 214.753,63.510 214.555,63.920 214.240 C 64.331 213.925,64.531 213.668,64.366 213.670 C 64.201 213.671,63.806 213.869,63.488 214.110 M334.884 214.269 C 336.180 215.309,336.884 215.554,335.784 214.583 C 335.206 214.072,334.599 213.658,334.434 213.661 C 334.269 213.664,334.471 213.938,334.884 214.269 M151.543 215.597 C 151.334 215.849,150.168 216.686,148.951 217.456 C 147.735 218.227,146.791 218.909,146.854 218.972 C 146.981 219.099,150.041 217.167,151.375 216.118 C 151.845 215.748,152.161 215.377,152.077 215.292 C 151.992 215.208,151.752 215.345,151.543 215.597 M246.662 215.348 C 246.662 215.739,251.718 219.200,251.950 218.967 C 252.027 218.890,251.489 218.475,250.754 218.044 C 250.019 217.614,248.797 216.788,248.040 216.210 C 247.282 215.631,246.662 215.243,246.662 215.348 M60.015 216.689 C 57.915 218.258,57.030 219.151,58.815 217.900 C 60.448 216.755,62.021 215.479,61.815 215.466 C 61.733 215.461,60.923 216.011,60.015 216.689 M338.485 216.737 C 338.485 216.795,338.923 217.163,339.460 217.555 C 340.063 217.997,340.273 218.070,340.010 217.745 C 339.610 217.253,338.485 216.509,338.485 216.737 M341.578 218.962 C 341.849 219.401,344.486 221.206,344.481 220.949 C 344.478 220.815,343.788 220.256,342.948 219.706 C 342.108 219.157,341.492 218.822,341.578 218.962 M55.293 220.049 C 54.759 220.410,54.320 220.816,54.318 220.951 C 54.313 221.221,55.990 220.098,56.273 219.641 C 56.515 219.250,56.411 219.293,55.293 220.049 M252.963 219.876 C 252.963 220.168,254.174 220.945,254.352 220.767 C 254.424 220.695,254.141 220.412,253.723 220.139 C 253.305 219.865,252.963 219.747,252.963 219.876 M255.612 221.838 C 255.831 222.105,256.709 222.765,257.562 223.306 C 258.416 223.846,259.925 224.907,260.915 225.664 C 263.173 227.388,265.463 228.957,265.722 228.957 C 265.944 228.957,260.128 224.689,257.164 222.678 C 256.092 221.950,255.393 221.572,255.612 221.838 M52.063 222.435 C 51.568 222.798,50.893 223.351,50.563 223.663 L 49.962 224.230 50.563 223.900 C 51.237 223.530,53.346 221.771,53.113 221.773 C 53.031 221.774,52.558 222.072,52.063 222.435 M346.437 222.487 C 347.715 223.624,352.588 226.905,352.588 226.628 C 352.588 226.501,351.474 225.686,350.113 224.816 C 348.751 223.946,347.164 222.886,346.587 222.460 L 345.536 221.686 346.437 222.487 M140.844 223.195 C 139.997 223.806,138.276 225.039,137.021 225.934 C 135.766 226.830,134.802 227.625,134.878 227.702 C 134.955 227.778,136.067 227.042,137.351 226.065 C 138.635 225.089,140.326 223.889,141.110 223.398 C 141.893 222.907,142.535 222.404,142.535 222.281 C 142.536 221.970,142.569 221.952,140.844 223.195 M47.990 225.282 C 45.974 226.637,44.711 227.632,44.711 227.865 C 44.711 227.959,45.565 227.399,46.608 226.619 C 47.651 225.839,48.833 224.973,49.233 224.694 C 49.634 224.416,49.895 224.181,49.812 224.173 C 49.730 224.165,48.910 224.664,47.990 225.282 M352.993 227.084 C 353.110 227.274,353.632 227.732,354.152 228.102 C 354.672 228.472,355.001 228.620,354.884 228.430 C 354.767 228.240,354.245 227.782,353.725 227.412 C 353.205 227.042,352.876 226.894,352.993 227.084 M42.782 229.129 C 42.464 229.361,42.262 229.609,42.333 229.680 C 42.404 229.751,42.722 229.618,43.039 229.386 C 43.357 229.154,43.559 228.906,43.489 228.835 C 43.418 228.764,43.100 228.896,42.782 229.129 M355.289 228.883 C 355.289 229.009,355.559 229.282,355.889 229.488 C 356.219 229.694,356.489 229.759,356.489 229.632 C 356.489 229.505,356.219 229.233,355.889 229.027 C 355.559 228.821,355.289 228.756,355.289 228.883 M39.085 231.597 C 37.724 232.538,36.610 233.408,36.610 233.530 C 36.609 233.652,37.607 233.044,38.826 232.180 C 40.045 231.315,41.294 230.447,41.602 230.250 C 41.909 230.054,42.026 229.891,41.860 229.889 C 41.695 229.887,40.447 230.656,39.085 231.597 M356.789 229.963 C 356.789 230.020,357.431 230.485,358.215 230.994 C 358.998 231.503,360.248 232.350,360.990 232.875 C 362.207 233.736,362.269 233.753,361.613 233.044 C 361.213 232.612,360.718 232.258,360.513 232.258 C 360.308 232.258,360.095 232.149,360.040 232.016 C 359.839 231.528,356.789 229.602,356.789 229.963 M129.677 231.154 C 129.490 231.380,128.184 232.347,126.776 233.304 C 125.368 234.260,124.273 235.101,124.344 235.172 C 124.518 235.346,125.731 234.572,125.731 234.286 C 125.731 234.161,125.865 234.059,126.028 234.059 C 126.264 234.059,127.709 233.054,130.208 231.153 C 130.276 231.101,130.262 230.987,130.175 230.900 C 130.089 230.814,129.865 230.928,129.677 231.154 M268.579 230.999 C 268.596 231.272,272.482 234.145,272.633 233.994 C 272.696 233.931,271.807 233.184,270.658 232.334 C 269.508 231.485,268.573 230.884,268.579 230.999 M35.188 234.452 C 34.654 234.813,34.215 235.217,34.212 235.349 C 34.210 235.481,34.681 235.229,35.259 234.788 C 35.836 234.348,36.309 233.936,36.309 233.873 C 36.309 233.704,36.248 233.736,35.188 234.452 M273.068 234.272 C 273.068 234.534,274.268 235.362,274.418 235.205 C 274.469 235.152,274.186 234.866,273.789 234.570 C 273.393 234.273,273.068 234.139,273.068 234.272 M32.358 236.405 C 32.303 236.540,31.380 237.239,30.308 237.958 C 28.443 239.207,25.994 241.047,25.356 241.677 C 24.951 242.078,25.856 241.473,29.124 239.160 C 32.625 236.682,33.241 236.181,32.808 236.169 C 32.616 236.164,32.413 236.270,32.358 236.405 M365.941 236.392 C 366.345 236.815,373.006 241.560,373.197 241.560 C 373.279 241.560,372.694 241.046,371.895 240.416 C 370.297 239.158,365.462 235.889,365.941 236.392 M120.630 237.712 C 119.887 238.374,119.685 238.635,120.180 238.292 C 121.688 237.248,122.243 236.771,122.108 236.637 C 122.038 236.566,121.372 237.050,120.630 237.712 M276.675 236.679 C 276.687 237.105,284.171 242.446,284.171 242.029 C 284.171 241.948,283.327 241.316,282.296 240.624 C 281.264 239.931,279.576 238.709,278.545 237.907 C 277.513 237.105,276.672 236.553,276.675 236.679 M117.067 240.205 C 114.410 242.025,114.070 242.470,116.486 240.966 C 118.146 239.932,119.552 238.805,119.092 238.877 C 119.030 238.887,118.119 239.484,117.067 240.205 M23.336 242.855 C 22.555 243.381,21.914 243.921,21.911 244.055 C 21.905 244.303,24.538 242.514,24.799 242.092 C 25.012 241.746,24.883 241.813,23.336 242.855 M374.228 242.404 C 375.862 243.647,376.894 244.287,376.889 244.056 C 376.886 243.921,376.212 243.372,375.392 242.836 C 373.785 241.785,373.060 241.516,374.228 242.404 M287.878 244.789 C 287.989 244.970,289.176 245.885,290.515 246.823 C 291.854 247.761,293.641 249.054,294.487 249.695 C 295.332 250.336,296.137 250.861,296.275 250.861 C 296.413 250.862,295.468 250.083,294.175 249.131 C 290.057 246.098,287.669 244.452,287.878 244.789 M107.054 247.325 C 105.446 248.503,104.181 249.517,104.243 249.579 C 104.305 249.641,105.236 249.026,106.312 248.211 C 107.387 247.397,108.686 246.483,109.198 246.181 C 109.709 245.879,110.128 245.526,110.128 245.397 C 110.128 245.061,110.253 244.982,107.054 247.325 M18.905 246.212 C 18.345 246.624,18.015 246.957,18.171 246.951 C 18.472 246.939,20.371 245.465,20.088 245.463 C 19.997 245.462,19.464 245.799,18.905 246.212 M16.154 248.018 C 15.548 248.415,14.954 248.901,14.832 249.097 C 14.665 249.367,16.846 248.039,17.679 247.363 C 18.200 246.941,17.034 247.442,16.154 248.018 M381.095 247.480 C 381.343 247.574,382.140 248.057,382.867 248.553 C 383.594 249.049,384.089 249.294,383.967 249.096 C 383.656 248.593,381.486 247.257,381.026 247.286 C 380.783 247.301,380.808 247.371,381.095 247.480 M13.094 250.137 C 11.881 251.204,12.233 251.289,13.492 250.233 C 14.063 249.754,14.401 249.367,14.242 249.372 C 14.083 249.377,13.567 249.722,13.094 250.137 M385.308 250.233 C 385.879 250.712,386.396 251.057,386.456 250.999 C 386.613 250.848,384.904 249.383,384.557 249.372 C 384.399 249.367,384.736 249.754,385.308 250.233 M101.241 251.514 C 99.936 252.496,99.769 252.663,100.090 252.662 C 100.247 252.662,100.848 252.257,101.425 251.763 C 102.640 250.723,102.516 250.555,101.241 251.514 M297.374 251.684 C 297.374 251.976,298.585 252.753,298.763 252.575 C 298.835 252.503,298.552 252.220,298.134 251.947 C 297.716 251.673,297.374 251.555,297.374 251.684 M9.742 269.017 C 9.742 277.764,9.780 281.300,9.827 276.873 C 9.874 272.447,9.874 265.290,9.827 260.969 C 9.780 256.648,9.742 260.270,9.742 269.017 M97.353 254.248 C 96.705 254.789,95.889 255.431,95.541 255.673 C 95.192 255.916,93.978 256.755,92.843 257.539 C 91.708 258.323,90.886 258.965,91.017 258.965 C 91.296 258.965,94.788 256.631,95.370 256.056 C 95.588 255.840,95.858 255.658,95.970 255.651 C 96.225 255.635,98.938 253.265,98.704 253.264 C 98.610 253.264,98.002 253.706,97.353 254.248 M300.075 253.367 C 300.075 253.447,300.784 254.063,301.650 254.735 C 302.517 255.408,303.361 256.068,303.526 256.202 C 304.523 257.012,308.547 259.595,308.650 259.492 C 308.718 259.424,307.796 258.732,306.600 257.955 C 305.404 257.177,303.861 256.108,303.170 255.578 C 300.530 253.552,300.075 253.227,300.075 253.367 M86.507 262.041 C 85.152 263.057,84.096 263.941,84.161 264.006 C 84.290 264.135,89.122 260.526,89.122 260.302 C 89.122 260.084,89.096 260.102,86.507 262.041 M309.677 260.263 C 309.677 260.499,314.099 263.850,315.229 264.470 C 315.724 264.742,316.602 265.318,317.179 265.750 L 318.230 266.536 317.329 265.741 C 316.834 265.304,315.349 264.203,314.029 263.296 C 312.708 262.388,311.189 261.295,310.653 260.867 C 310.116 260.438,309.677 260.167,309.677 260.263 M77.418 268.499 C 71.279 272.861,69.052 274.569,69.501 274.569 C 69.668 274.569,70.066 274.329,70.386 274.035 C 70.706 273.742,71.440 273.175,72.018 272.774 C 72.596 272.374,73.136 271.964,73.218 271.863 C 73.301 271.762,74.719 270.753,76.369 269.620 C 79.970 267.148,79.647 267.394,79.493 267.240 C 79.424 267.171,78.490 267.737,77.418 268.499 M319.284 267.271 C 319.286 267.406,319.773 267.832,320.366 268.216 C 320.960 268.601,321.359 268.776,321.254 268.605 C 320.961 268.131,319.279 266.993,319.284 267.271 M321.680 268.995 C 321.680 269.077,322.491 269.695,323.481 270.368 C 324.471 271.040,325.281 271.523,325.281 271.440 C 325.281 271.358,324.471 270.740,323.481 270.068 C 322.491 269.395,321.680 268.912,321.680 268.995 M325.581 271.782 C 325.581 272.043,326.781 272.872,326.932 272.714 C 326.982 272.661,326.699 272.376,326.302 272.079 C 325.906 271.782,325.581 271.649,325.581 271.782 M328.160 273.818 C 328.640 274.230,329.167 274.567,329.332 274.567 C 329.697 274.565,327.945 273.094,327.560 273.079 C 327.411 273.073,327.681 273.406,328.160 273.818 M68.117 275.169 C 67.704 275.492,67.515 275.759,67.695 275.762 C 67.876 275.766,68.268 275.499,68.567 275.169 C 69.251 274.413,69.084 274.413,68.117 275.169 M329.782 274.790 C 329.782 275.082,330.993 275.858,331.171 275.680 C 331.243 275.609,330.960 275.326,330.542 275.052 C 330.124 274.779,329.782 274.660,329.782 274.790 M65.991 276.606 C 65.399 277.054,63.779 278.256,62.390 279.279 C 58.767 281.947,58.526 282.153,59.865 281.440 C 60.525 281.088,61.133 280.705,61.215 280.588 C 61.298 280.470,61.849 280.047,62.441 279.647 C 63.032 279.247,64.045 278.488,64.691 277.960 C 65.338 277.433,66.204 276.728,66.617 276.395 C 67.726 275.499,67.239 275.664,65.991 276.606 M332.333 276.493 C 332.828 276.918,333.357 277.267,333.508 277.268 C 333.834 277.270,333.830 277.267,332.483 276.397 L 331.433 275.719 332.333 276.493 M334.486 278.254 C 336.147 279.595,337.740 280.726,338.482 281.092 C 339.363 281.526,339.369 281.531,336.022 279.057 C 333.982 277.549,332.931 276.999,334.486 278.254 M341.185 282.950 C 341.185 283.127,341.320 283.271,341.485 283.271 C 341.649 283.271,342.308 283.744,342.948 284.323 L 344.113 285.375 366.580 285.296 L 389.047 285.217 366.513 285.144 C 344.020 285.071,343.978 285.070,343.407 284.439 C 342.563 283.504,341.185 282.582,341.185 282.950 M55.666 284.169 L 54.805 285.067 32.279 285.146 L 9.752 285.225 32.274 285.298 L 54.796 285.371 55.814 284.321 C 56.374 283.743,56.763 283.271,56.679 283.271 C 56.595 283.271,56.139 283.675,55.666 284.169 " stroke="none" fill="#357ac4" fill-rule="evenodd"></path><path id="path4" d="M10.103 14.004 C 9.992 14.114,9.902 21.270,9.902 29.908 L 9.902 45.612 11.654 46.973 C 12.618 47.721,14.610 49.159,16.081 50.168 C 17.551 51.177,19.700 52.703,20.855 53.560 C 22.011 54.416,23.716 55.645,24.645 56.291 C 26.492 57.574,31.108 60.874,35.109 63.771 C 39.272 66.786,45.794 71.450,48.319 73.218 C 49.616 74.126,52.925 76.489,55.673 78.470 C 62.576 83.443,65.716 85.580,65.716 85.302 C 65.716 85.172,65.413 84.881,65.041 84.654 C 64.670 84.428,62.360 82.809,59.909 81.056 C 57.458 79.304,54.596 77.262,53.550 76.519 C 45.799 71.017,43.710 69.525,39.460 66.461 C 36.819 64.558,33.376 62.099,31.808 60.997 C 30.240 59.896,27.742 58.105,26.257 57.018 C 23.614 55.085,19.793 52.365,15.498 49.362 C 14.317 48.537,12.643 47.343,11.777 46.709 L 10.203 45.555 10.203 29.829 L 10.203 14.104 32.089 14.104 L 53.975 14.104 56.470 15.919 C 57.842 16.917,59.977 18.425,61.215 19.270 C 62.453 20.115,63.533 20.886,63.616 20.983 C 63.801 21.201,76.700 30.416,78.770 31.809 C 79.595 32.364,80.338 32.900,80.420 32.998 C 80.503 33.097,83.406 35.190,86.872 37.649 C 90.338 40.108,94.794 43.290,96.774 44.720 C 98.755 46.150,101.504 48.117,102.884 49.091 C 108.545 53.088,133.891 71.197,139.385 75.170 C 144.783 79.074,146.579 80.294,146.324 79.880 C 146.211 79.697,143.885 77.954,141.156 76.008 C 131.976 69.460,130.310 68.276,127.098 66.017 C 125.339 64.779,122.995 63.084,121.890 62.249 C 120.784 61.415,118.395 59.699,116.579 58.434 C 114.764 57.170,111.185 54.622,108.627 52.771 C 106.069 50.920,102.608 48.451,100.936 47.284 C 96.275 44.029,75.081 28.871,73.218 27.459 C 72.311 26.771,70.488 25.475,69.167 24.579 C 67.847 23.683,65.484 21.997,63.916 20.831 C 62.348 19.665,60.188 18.125,59.115 17.408 C 58.042 16.691,56.538 15.587,55.772 14.954 L 54.380 13.803 32.341 13.803 C 20.220 13.803,10.213 13.893,10.103 14.004 M341.905 15.708 C 339.245 17.728,333.591 21.813,330.253 24.125 C 329.086 24.933,327.187 26.291,326.032 27.144 C 324.876 27.996,319.677 31.710,314.479 35.396 C 309.280 39.083,303.811 43.002,302.326 44.106 C 300.840 45.210,298.545 46.857,297.224 47.767 C 294.511 49.636,282.934 57.884,278.170 61.343 C 274.655 63.894,270.215 67.067,265.120 70.668 C 257.515 76.042,252.659 79.585,252.462 79.902 C 252.237 80.267,252.497 80.091,258.065 76.103 C 260.128 74.626,263.301 72.363,265.116 71.075 C 269.908 67.675,275.323 63.809,276.125 63.214 C 276.791 62.720,280.486 60.084,292.770 51.338 C 295.880 49.124,300.045 46.142,302.026 44.712 C 304.006 43.282,306.190 41.718,306.879 41.236 C 307.568 40.754,310.385 38.740,313.138 36.759 C 315.892 34.779,319.671 32.078,321.537 30.758 C 323.403 29.437,327.183 26.737,329.936 24.756 C 332.689 22.776,336.001 20.413,337.296 19.505 C 338.591 18.597,340.816 17.011,342.241 15.979 L 344.832 14.104 366.714 14.104 L 388.597 14.104 388.597 29.846 L 388.597 45.589 386.763 46.876 C 385.754 47.583,384.147 48.706,383.191 49.370 C 382.235 50.035,381.069 50.870,380.599 51.226 C 379.625 51.964,372.346 57.185,367.442 60.663 C 365.626 61.950,361.980 64.564,359.340 66.472 C 356.699 68.380,353.532 70.633,352.302 71.480 C 351.071 72.327,348.750 73.976,347.144 75.144 C 344.072 77.380,341.779 79.022,336.218 82.971 C 329.627 87.651,325.705 90.456,323.631 91.973 C 322.476 92.817,318.695 95.517,315.229 97.973 C 311.763 100.428,307.982 103.129,306.827 103.974 C 305.671 104.820,303.129 106.652,301.176 108.045 C 299.223 109.438,296.253 111.559,294.574 112.759 C 292.896 113.959,290.578 115.597,289.422 116.398 C 288.267 117.200,285.431 119.222,283.121 120.892 C 277.775 124.756,274.038 127.433,270.068 130.243 C 268.335 131.469,266.761 132.610,266.570 132.778 C 266.379 132.946,264.826 134.061,263.119 135.256 C 261.412 136.451,257.854 138.985,255.214 140.887 C 252.573 142.789,248.898 145.390,247.046 146.666 C 245.194 147.943,243.675 149.144,243.670 149.336 C 243.665 149.529,247.206 152.217,251.538 155.311 C 255.870 158.405,259.610 161.083,259.848 161.263 C 260.178 161.513,260.225 161.499,260.049 161.205 C 259.921 160.994,258.732 160.048,257.407 159.105 C 256.081 158.161,253.830 156.551,252.404 155.526 C 250.979 154.501,248.493 152.753,246.881 151.642 C 243.417 149.253,243.406 149.643,247.007 147.117 C 248.600 146.000,252.155 143.466,254.908 141.485 C 257.660 139.505,260.887 137.209,262.079 136.384 C 263.271 135.559,265.146 134.209,266.247 133.383 C 267.347 132.558,269.684 130.870,271.439 129.632 C 278.533 124.628,281.794 122.306,290.180 116.279 C 295.003 112.813,300.588 108.830,302.592 107.427 C 304.596 106.024,307.062 104.269,308.072 103.526 C 309.083 102.783,311.902 100.758,314.337 99.025 C 316.772 97.292,319.994 94.987,321.498 93.903 C 326.007 90.652,331.099 87.016,334.708 84.471 C 336.581 83.151,340.167 80.585,342.677 78.770 C 345.188 76.954,348.411 74.649,349.840 73.647 C 351.269 72.646,354.936 70.023,357.989 67.820 C 361.043 65.617,364.882 62.881,366.520 61.741 C 368.159 60.600,370.252 59.096,371.172 58.399 C 372.728 57.218,374.498 55.958,381.507 51.042 C 383.013 49.985,385.259 48.360,386.497 47.430 L 388.747 45.739 388.747 29.846 L 388.747 13.953 366.542 13.907 L 344.336 13.861 341.905 15.708 M146.750 80.334 C 146.758 80.464,148.046 81.448,149.614 82.521 C 151.181 83.593,153.108 84.944,153.894 85.521 C 154.681 86.099,156.179 87.179,157.223 87.922 C 158.267 88.665,160.352 90.160,161.856 91.244 C 164.391 93.071,179.979 104.205,183.046 106.378 C 183.788 106.904,187.725 109.718,191.793 112.632 C 195.862 115.546,199.261 117.929,199.348 117.929 C 199.435 117.929,200.515 117.221,201.747 116.354 C 206.922 112.716,218.647 104.356,221.005 102.623 C 221.830 102.017,225.139 99.651,228.357 97.366 C 231.575 95.081,235.154 92.520,236.309 91.674 C 240.232 88.803,248.271 83.105,250.632 81.522 C 251.413 80.998,252.055 80.464,252.058 80.334 C 252.064 80.057,249.417 81.817,245.611 84.620 C 244.126 85.714,241.965 87.263,240.810 88.061 C 239.655 88.860,238.035 90.013,237.209 90.623 C 236.384 91.233,232.696 93.879,229.013 96.504 C 225.330 99.128,220.199 102.790,217.610 104.641 C 215.021 106.492,211.215 109.202,209.152 110.663 C 207.089 112.123,204.156 114.221,202.634 115.324 C 199.245 117.780,199.613 117.790,195.932 115.154 C 194.260 113.957,191.662 112.128,190.158 111.088 C 188.654 110.048,185.999 108.148,184.259 106.866 C 179.587 103.422,164.874 92.923,157.839 88.013 C 155.776 86.573,153.278 84.770,152.288 84.005 C 149.783 82.072,146.734 80.051,146.750 80.334 M67.042 86.474 C 67.688 87.023,70.051 88.766,72.293 90.347 C 76.263 93.147,86.248 100.277,90.473 103.329 C 91.628 104.163,94.126 105.934,96.024 107.264 C 97.922 108.594,100.488 110.434,101.725 111.354 C 104.195 113.188,115.375 121.190,120.767 124.981 C 125.739 128.478,130.288 131.728,133.533 134.104 C 135.101 135.251,137.059 136.647,137.884 137.205 C 138.710 137.763,142.124 140.206,145.472 142.632 C 148.820 145.059,152.297 147.535,153.199 148.133 C 155.234 149.485,155.265 149.319,152.663 151.069 C 151.467 151.874,149.542 153.227,148.387 154.076 C 144.715 156.774,136.961 162.313,130.096 167.142 C 128.571 168.215,125.986 170.067,124.352 171.259 C 121.182 173.570,110.491 181.212,104.629 185.356 C 102.677 186.736,100.230 188.502,99.192 189.281 C 98.154 190.060,96.375 191.335,95.239 192.113 C 94.103 192.891,89.595 196.102,85.221 199.248 C 80.848 202.394,75.986 205.864,74.419 206.960 C 72.851 208.056,70.150 209.984,68.417 211.245 C 66.684 212.506,63.781 214.599,61.965 215.896 C 60.150 217.192,56.858 219.548,54.649 221.130 C 52.440 222.712,49.673 224.674,48.500 225.490 C 47.327 226.306,45.051 227.926,43.441 229.091 C 36.434 234.161,19.837 246.016,16.804 248.117 C 13.777 250.215,10.661 252.561,10.261 253.043 C 9.984 253.377,9.916 257.239,9.975 269.201 L 10.053 284.921 31.808 285.004 C 55.205 285.093,54.403 285.124,55.514 284.097 C 55.926 283.715,57.412 282.609,58.815 281.637 C 60.218 280.666,62.716 278.883,64.366 277.675 C 66.017 276.467,70.727 273.080,74.833 270.148 C 82.313 264.807,84.414 263.314,89.920 259.433 C 91.544 258.288,94.021 256.510,95.424 255.482 C 97.787 253.750,101.879 250.834,108.927 245.857 C 110.495 244.750,112.723 243.151,113.878 242.304 C 117.529 239.627,121.747 236.617,131.930 229.421 C 133.555 228.273,136.099 226.441,137.584 225.349 C 139.070 224.257,142.513 221.790,145.236 219.868 C 152.386 214.820,156.410 211.808,154.703 212.782 C 154.245 213.044,143.222 220.875,139.535 223.559 C 137.802 224.820,135.034 226.798,133.383 227.953 C 130.121 230.237,101.224 250.869,99.025 252.485 C 98.282 253.031,96.189 254.530,94.374 255.816 C 92.558 257.102,90.398 258.651,89.572 259.259 C 88.080 260.359,82.469 264.373,75.961 268.996 C 74.087 270.328,71.699 272.026,70.654 272.768 C 69.610 273.511,66.485 275.732,63.710 277.705 C 60.935 279.677,58.597 281.375,58.515 281.478 C 58.432 281.581,57.529 282.229,56.508 282.917 C 55.486 283.605,54.567 284.304,54.465 284.470 C 54.342 284.667,46.680 284.771,32.240 284.771 L 10.203 284.771 10.203 269.051 L 10.203 253.331 11.028 252.692 C 11.803 252.092,24.931 242.710,31.208 238.270 C 35.250 235.411,42.921 229.929,43.811 229.265 C 45.039 228.347,53.368 222.383,56.070 220.486 C 57.449 219.518,59.272 218.216,60.122 217.592 C 60.971 216.967,64.299 214.588,67.517 212.305 C 70.735 210.021,73.976 207.711,74.719 207.170 C 76.408 205.940,83.967 200.526,88.473 197.320 C 90.343 195.988,92.774 194.257,93.874 193.472 C 94.974 192.688,96.819 191.379,97.974 190.563 C 99.130 189.748,102.236 187.518,104.876 185.607 C 107.517 183.697,110.488 181.575,111.478 180.892 C 112.468 180.210,114.224 178.954,115.379 178.103 C 117.775 176.336,125.529 170.797,129.042 168.342 C 139.641 160.937,155.146 149.605,155.059 149.328 C 154.999 149.141,153.525 147.974,151.783 146.737 C 150.040 145.499,146.403 142.902,143.699 140.967 C 140.996 139.031,137.367 136.437,135.634 135.201 C 133.901 133.965,132.213 132.757,131.883 132.517 C 130.708 131.660,122.250 125.610,120.480 124.360 C 119.490 123.661,116.114 121.248,112.978 118.999 C 109.842 116.749,105.791 113.857,103.976 112.572 C 102.161 111.287,97.704 108.111,94.074 105.515 C 90.443 102.918,86.999 100.458,86.422 100.048 C 85.844 99.638,84.629 98.754,83.721 98.084 C 82.813 97.414,80.653 95.870,78.920 94.654 C 77.187 93.438,74.149 91.275,72.168 89.847 C 70.188 88.419,67.959 86.852,67.217 86.364 L 65.866 85.477 67.042 86.474 M260.465 161.547 C 260.465 161.703,262.283 163.033,269.576 168.213 C 275.165 172.182,280.995 176.356,283.698 178.326 C 285.336 179.519,287.926 181.373,289.453 182.446 C 292.749 184.761,300.731 190.448,303.109 192.175 C 304.035 192.848,306.060 194.303,307.610 195.408 C 309.160 196.514,311.980 198.531,313.878 199.891 C 315.776 201.251,318.815 203.417,320.630 204.705 C 324.901 207.734,330.649 211.845,332.933 213.503 C 333.923 214.223,339.122 217.934,344.486 221.751 C 349.850 225.568,354.442 228.852,354.691 229.049 C 354.941 229.246,357.979 231.423,361.443 233.887 C 364.907 236.352,369.920 239.930,372.583 241.839 C 375.246 243.749,378.942 246.392,380.797 247.712 C 382.652 249.032,385.166 250.831,386.383 251.709 L 388.597 253.305 388.597 269.038 L 388.597 284.771 366.694 284.771 L 344.791 284.771 343.490 283.796 C 342.774 283.260,341.591 282.401,340.861 281.887 C 338.942 280.537,331.017 274.854,329.782 273.944 C 327.103 271.967,315.020 263.385,312.142 261.415 C 309.362 259.512,309.021 259.362,310.878 260.860 C 311.609 261.450,325.294 271.200,329.277 273.968 C 331.295 275.371,333.754 277.134,334.740 277.885 C 335.727 278.636,337.682 280.042,339.085 281.009 C 340.488 281.975,342.263 283.286,343.030 283.921 L 344.424 285.075 366.586 284.998 L 388.747 284.921 388.825 269.151 L 388.902 253.381 388.075 252.619 C 387.303 251.908,379.085 246.002,360.999 233.158 C 359.488 232.086,356.924 230.241,355.300 229.059 C 353.676 227.877,351.355 226.226,350.142 225.389 C 348.929 224.553,345.776 222.306,343.136 220.396 C 340.495 218.487,337.052 216.031,335.484 214.938 C 333.916 213.845,331.418 212.052,329.932 210.953 C 328.447 209.854,325.949 208.059,324.381 206.965 C 320.446 204.218,302.388 191.329,298.725 188.652 C 297.074 187.446,294.441 185.562,292.873 184.465 C 291.305 183.369,287.862 180.903,285.221 178.987 C 282.581 177.070,279.610 174.949,278.620 174.275 C 277.629 173.600,275.469 172.062,273.818 170.856 C 265.826 165.018,260.465 161.280,260.465 161.547 M193.398 185.013 C 190.263 187.249,187.014 189.579,186.180 190.189 C 185.346 190.799,183.022 192.446,181.017 193.848 C 179.012 195.251,177.365 196.510,177.358 196.645 C 177.344 196.898,179.971 195.114,185.446 191.149 C 192.431 186.092,199.266 181.245,199.413 181.245 C 199.499 181.245,201.286 182.501,203.385 184.035 C 205.484 185.570,208.080 187.417,209.152 188.140 C 210.225 188.862,212.116 190.213,213.353 191.141 C 216.678 193.634,221.579 196.993,221.349 196.620 C 221.239 196.441,219.091 194.838,216.576 193.057 C 214.061 191.276,211.935 189.738,211.853 189.639 C 211.770 189.540,210.555 188.671,209.152 187.707 C 207.749 186.743,205.038 184.828,203.126 183.450 C 201.214 182.072,199.527 180.945,199.375 180.946 C 199.224 180.946,196.534 182.776,193.398 185.013 M174.644 198.455 C 168.625 202.686,156.988 211.051,156.189 211.720 L 155.289 212.474 156.189 211.944 C 157.184 211.358,158.756 210.250,165.641 205.280 C 168.200 203.433,171.664 200.979,173.339 199.826 C 175.921 198.051,177.449 196.815,177.006 196.861 C 176.945 196.867,175.881 197.585,174.644 198.455 M222.009 197.228 C 222.232 197.504,223.785 198.679,225.460 199.838 C 228.584 201.999,233.003 205.151,238.564 209.185 C 240.294 210.440,242.116 211.701,242.611 211.985 L 243.511 212.503 242.611 211.734 C 241.715 210.969,228.587 201.548,224.006 198.384 C 222.686 197.472,221.787 196.952,222.009 197.228 M244.411 213.190 C 244.906 213.622,246.324 214.709,247.562 215.605 C 251.213 218.248,262.834 226.533,265.205 228.184 C 266.409 229.022,268.164 230.298,269.106 231.019 C 270.047 231.740,271.830 233.010,273.068 233.840 C 274.306 234.670,276.264 236.053,277.419 236.912 C 278.575 237.772,280.668 239.281,282.071 240.266 C 283.473 241.250,286.647 243.520,289.122 245.309 C 291.598 247.098,294.974 249.508,296.624 250.666 C 298.275 251.824,300.840 253.667,302.326 254.763 C 306.081 257.532,308.780 259.331,308.760 259.051 C 308.751 258.921,306.636 257.329,304.059 255.514 C 301.483 253.698,298.141 251.335,296.632 250.263 C 287.889 244.047,285.249 242.162,282.790 240.385 C 281.288 239.298,279.006 237.667,277.720 236.759 C 276.433 235.851,274.624 234.560,273.699 233.890 C 268.683 230.255,266.004 228.338,256.564 221.630 C 250.870 217.584,246.077 214.164,245.911 214.030 C 245.746 213.897,245.139 213.476,244.561 213.095 L 243.511 212.404 244.411 213.190 " stroke="none" fill="#7cacdc" fill-rule="evenodd"></path></g></svg>